<?xml version="1.0" encoding="utf-8"?>
<!-- Generator: Adobe Illustrator 27.5.0, SVG Export Plug-In . SVG Version: 6.00 Build 0)  -->
<svg version="1.1" xmlns="http://www.w3.org/2000/svg" xmlns:xlink="http://www.w3.org/1999/xlink" x="0px" y="0px"
	 viewBox="0 0 500 500" style="enable-background:new 0 0 500 500;" xml:space="preserve">
<g id="BACKGROUND">
	<rect style="fill:#FFFFFF;" width="500" height="500"/>
</g>
<g id="OBJECTS">
	<g>
		<path style="fill:#CFCCFF;" d="M336.589,403.839c-9.733-0.437-19.034-1.85-27.269-4.263c-9.04-2.65-23.111-5.576-38.574-4.362
			c-14.594,1.146-27.534,3.77-36.136,6.982c-5.251,1.961-11.413,3.018-17.474,2.853c-10.248-0.28-22,0.025-34.458,1.003
			c-39.037,3.064-65.384,4.518-64.8,11.951c0.583,7.433,27.876,18.029,66.913,14.965c4.633-0.364,9.155-0.804,13.526-1.311
			c11.08-1.283,22.247-0.609,31.851,1.797c17.462,4.376,49.074,10.133,84.484,7.353c53.832-4.226,87.632-10.194,86.845-20.225
			C400.955,413.681,362.767,405.014,336.589,403.839z"/>
		<g>
			<linearGradient id="SVGID_1_" gradientUnits="userSpaceOnUse" x1="118.2673" y1="332.4258" x2="118.2673" y2="383.8563">
				<stop  offset="0" style="stop-color:#00FFFF"/>
				<stop  offset="1" style="stop-color:#1C9585"/>
			</linearGradient>
			<path style="fill:url(#SVGID_1_);" d="M128.926,338.818c-4.523-2.495-9.309-4.105-14.067-5.084
				c-0.618-0.127-1.196,0.355-1.196,0.986v0c0,1.127-1.573,1.395-1.946,0.332l-0.49-1.393c-0.126-0.358-0.444-0.617-0.82-0.666
				c-4.074-0.528-8.059-0.647-11.765-0.52c-0.538,0.019-0.961,0.465-0.961,1.003v1.127c0,0.973-1.248,1.375-1.815,0.584
				l-1.411-1.967c-0.208-0.29-0.558-0.449-0.913-0.415c-7.162,0.683-12.69,2.103-14.822,2.709c-0.535,0.152-0.843,0.707-0.687,1.24
				c1.037,3.532,5.185,16.223,14.152,27.394c0.233,0.29,0.611,0.428,0.976,0.359l1.843-0.349c1.116-0.211,1.666,1.305,0.674,1.859
				l-0.189,0.106c-0.565,0.315-0.693,1.079-0.252,1.552c3.492,3.737,7.591,7.151,12.372,9.788
				c19.968,11.014,45.054,4.771,50.209,3.303c0.534-0.152,0.84-0.708,0.684-1.24C156.993,374.383,148.894,349.833,128.926,338.818z"
				/>
			<g>
				
					<line style="fill:none;stroke:#FFFFFF;stroke-width:1.6285;stroke-linecap:round;stroke-miterlimit:10;" x1="90.997" y1="343.098" x2="153.443" y2="377.544"/>
				
					<line style="fill:none;stroke:#FFFFFF;stroke-width:1.6285;stroke-linecap:round;stroke-miterlimit:10;" x1="97.681" y1="353.045" x2="104.453" y2="351.088"/>
				
					<line style="fill:none;stroke:#FFFFFF;stroke-width:1.6285;stroke-linecap:round;stroke-miterlimit:10;" x1="112.006" y1="365.218" x2="123.86" y2="361.793"/>
				
					<line style="fill:none;stroke:#FFFFFF;stroke-width:1.6285;stroke-linecap:round;stroke-miterlimit:10;" x1="124.376" y1="376.357" x2="141.364" y2="371.448"/>
				
					<line style="fill:none;stroke:#FFFFFF;stroke-width:1.6285;stroke-linecap:round;stroke-miterlimit:10;" x1="102.754" y1="343.848" x2="104.711" y2="350.62"/>
				
					<line style="fill:none;stroke:#FFFFFF;stroke-width:1.6285;stroke-linecap:round;stroke-miterlimit:10;" x1="120.692" y1="349.471" x2="124.118" y2="361.326"/>
				
					<line style="fill:none;stroke:#FFFFFF;stroke-width:1.6285;stroke-linecap:round;stroke-miterlimit:10;" x1="136.713" y1="353.993" x2="141.621" y2="370.981"/>
			</g>
		</g>
		<g>
			<g>
				
					<linearGradient id="SVGID_00000054240286095889830270000009750980378691258535_" gradientUnits="userSpaceOnUse" x1="397.1269" y1="283.1055" x2="397.1269" y2="381.137" gradientTransform="matrix(1 6.000000e-04 -6.000000e-04 1 -1.9474 -4.769)">
					<stop  offset="0" style="stop-color:#AFE6FF"/>
					<stop  offset="1" style="stop-color:#41B4E6"/>
				</linearGradient>
				<path style="fill:url(#SVGID_00000054240286095889830270000009750980378691258535_);" d="M430.481,323.533l1.422,0.001
					c2.375,0.002,4.516-1.48,5.302-3.721c5.403-15.407,6.578-30.088,6.814-37.045c0.079-2.33-1.826-4.24-4.156-4.164
					c-3.108,0.102-7.76,0.389-13.33,1.156c-3.056,0.421-5.805,2.091-7.597,4.602l-1.309,1.834c-0.582,0.815-1.867,0.403-1.867-0.599
					l0,0c0.001-2.014-1.9-3.475-3.85-2.973c-0.251,0.065-0.503,0.13-0.755,0.197c-3.94,1.043-7.294,3.639-9.281,7.197l-4.597,8.231
					c-0.517,0.926-1.928,0.559-1.928-0.502l0.003-4.858c0.001-2.163-2.279-3.563-4.211-2.591
					c-6.929,3.488-13.648,8.006-19.512,13.863c-24.71,24.681-25.708,64.567-25.693,71.393c0.001,0.567,0.455,1.021,1.021,1.023
					c6.826,0.023,46.713-0.928,71.423-25.609c5.969-5.962,10.553-12.813,14.074-19.869c0.894-1.791,0.246-3.97-1.461-5.014
					l-1.052-0.644C429.057,324.898,429.442,323.533,430.481,323.533z"/>
				<g>
					
						<line style="fill:none;stroke:#FFFFFF;stroke-width:1.4387;stroke-linecap:round;stroke-miterlimit:10;" x1="428.036" y1="294.573" x2="352.402" y2="370.119"/>
					
						<line style="fill:none;stroke:#FFFFFF;stroke-width:1.4387;stroke-linecap:round;stroke-miterlimit:10;" x1="410.927" y1="300.049" x2="410.921" y2="310.616"/>
					
						<line style="fill:none;stroke:#FFFFFF;stroke-width:1.4387;stroke-linecap:round;stroke-miterlimit:10;" x1="387.426" y1="315.597" x2="387.415" y2="334.094"/>
					
						<line style="fill:none;stroke:#FFFFFF;stroke-width:1.4387;stroke-linecap:round;stroke-miterlimit:10;" x1="366.23" y1="328.764" x2="366.215" y2="355.27"/>
					
						<line style="fill:none;stroke:#FFFFFF;stroke-width:1.4387;stroke-linecap:round;stroke-miterlimit:10;" x1="422.053" y1="311.188" x2="411.486" y2="311.182"/>
					
						<line style="fill:none;stroke:#FFFFFF;stroke-width:1.4387;stroke-linecap:round;stroke-miterlimit:10;" x1="406.477" y1="334.671" x2="387.981" y2="334.66"/>
					
						<line style="fill:none;stroke:#FFFFFF;stroke-width:1.4387;stroke-linecap:round;stroke-miterlimit:10;" x1="393.286" y1="355.851" x2="366.78" y2="355.836"/>
				</g>
			</g>
			<path style="opacity:0.28;" d="M417.253,352.069c-2.369-1.103-4.913-2.155-7.606-3.072c-1.135-0.387-2.368-0.392-3.503-0.004
				l-2.851,0.975c-0.943,0.323-1.737-0.766-1.142-1.566c0.447-0.6,0.112-1.457-0.622-1.604c-4.939-0.988-10.17-1.38-15.506-0.771
				c-18.678,2.132-33.39,15.834-39.863,22.926c-0.194,3.079-0.225,5.375-0.222,6.601c0,0.078,0.01,0.153,0.027,0.226
				c0.356,0.254,0.733,0.518,1.139,0.797C354.204,376.587,392.64,375.52,417.253,352.069z"/>
			
				<linearGradient id="SVGID_00000022544289556537071350000003711555692956233355_" gradientUnits="userSpaceOnUse" x1="397.6059" y1="344.0588" x2="415.0491" y2="396.1157" gradientTransform="matrix(0.9807 0.1956 -0.1956 0.9807 60.1708 -75.2471)">
				<stop  offset="0" style="stop-color:#71C8EF"/>
				<stop  offset="1" style="stop-color:#0F9AD6"/>
			</linearGradient>
			<path style="fill:url(#SVGID_00000022544289556537071350000003711555692956233355_);" d="M406.055,354.28l-2.896,0.831
				c-0.958,0.275-1.697-0.852-1.063-1.621l0,0c0.476-0.577,0.185-1.45-0.541-1.633c-4.883-1.235-10.088-1.888-15.448-1.547
				c-22.742,1.446-40.529,20.172-44.105,24.199c-0.373,0.42-0.332,1.06,0.091,1.429c3.778,3.295,21.389,17.659,42.153,18.459
				c0.681,0.026,1.186-0.63,1.004-1.287l-0.206-0.744c-0.268-0.967,0.88-1.694,1.64-1.039l1.598,1.376
				c1.175,1.012,2.732,1.479,4.267,1.256c18.288-2.656,32.869-15.877,38.55-21.746c1.471-1.519,1.311-3.965-0.34-5.286
				c-3.937-3.149-11.587-8.643-21.206-12.467C408.438,354.017,407.208,353.949,406.055,354.28z"/>
			<g>
				
					<line style="fill:none;stroke:#0F9AD6;stroke-width:1.4387;stroke-linecap:round;stroke-miterlimit:10;" x1="418.589" y1="370.356" x2="347.417" y2="374.882"/>
				
					<line style="fill:none;stroke:#0F9AD6;stroke-width:1.4387;stroke-linecap:round;stroke-miterlimit:10;" x1="407.606" y1="365.562" x2="402.947" y2="370.853"/>
				
					<line style="fill:none;stroke:#0F9AD6;stroke-width:1.4387;stroke-linecap:round;stroke-miterlimit:10;" x1="388.983" y1="362.998" x2="380.829" y2="372.259"/>
				
					<line style="fill:none;stroke:#0F9AD6;stroke-width:1.4387;stroke-linecap:round;stroke-miterlimit:10;" x1="372.564" y1="360.256" x2="360.879" y2="373.528"/>
				
					<line style="fill:none;stroke:#0F9AD6;stroke-width:1.4387;stroke-linecap:round;stroke-miterlimit:10;" x1="408.272" y1="376.044" x2="402.981" y2="371.386"/>
				
					<line style="fill:none;stroke:#0F9AD6;stroke-width:1.4387;stroke-linecap:round;stroke-miterlimit:10;" x1="390.124" y1="380.946" x2="380.863" y2="372.792"/>
				
					<line style="fill:none;stroke:#0F9AD6;stroke-width:1.4387;stroke-linecap:round;stroke-miterlimit:10;" x1="374.184" y1="385.746" x2="360.913" y2="374.061"/>
			</g>
		</g>
		<g>
			
				<linearGradient id="SVGID_00000137829719663660304180000006656350559527123362_" gradientUnits="userSpaceOnUse" x1="309.753" y1="239.6269" x2="309.753" y2="299.0765" gradientTransform="matrix(0.8536 -0.521 0.521 0.8536 -55.3293 208.3248)">
				<stop  offset="0" style="stop-color:#00FFFF"/>
				<stop  offset="1" style="stop-color:#1C9585"/>
			</linearGradient>
			<path style="fill:url(#SVGID_00000137829719663660304180000006656350559527123362_);" d="M364.199,277.806
				c-0.527,0.112-0.899-0.504-0.555-0.918l1.42-1.711c0.099-0.12,0.146-0.275,0.13-0.43c-0.474-4.326-1.798-8.373-3.538-12.024
				c-0.119-0.25-0.403-0.376-0.669-0.301l-0.225,0.063c-0.542,0.153-0.952-0.492-0.583-0.917l0.309-0.357
				c0.155-0.179,0.184-0.438,0.071-0.646c-4.83-8.918-11.792-15.099-13.576-16.599c-0.239-0.201-0.59-0.171-0.791,0.068
				c-0.875,1.039-3.213,3.945-5.653,8.091c-0.106,0.181-0.106,0.409,0.004,0.588c0.196,0.322,0.562,0.904,0.887,1.419
				c0.047,0.074,0.032,0.172-0.035,0.229c-0.067,0.057-0.165,0.057-0.232-0.001l-0.749-0.655c-0.274-0.229-0.69-0.155-0.862,0.158
				c-0.655,1.199-1.304,2.48-1.921,3.833c-0.065,0.143-0.069,0.309-0.009,0.454l1.026,2.52c0.096,0.235-0.181,0.445-0.382,0.29
				l-0.936-0.721c-0.299-0.231-0.739-0.113-0.876,0.239c-2.056,5.268-3.452,11.379-2.905,17.744
				c1.428,16.623,15.611,29.281,18.284,31.529c0.24,0.202,0.594,0.175,0.796-0.065c2.118-2.513,12.784-15.941,12.759-31.436
				c0-0.36-0.338-0.627-0.69-0.552L364.199,277.806z"/>
			<g>
				
					<line style="fill:none;stroke:#FFFFFF;stroke-width:1.0379;stroke-linecap:round;stroke-miterlimit:10;" x1="347.486" y1="254.476" x2="351.889" y2="305.737"/>
				
					<line style="fill:none;stroke:#FFFFFF;stroke-width:1.0379;stroke-linecap:round;stroke-miterlimit:10;" x1="344.204" y1="262.475" x2="348.095" y2="265.75"/>
				
					<line style="fill:none;stroke:#FFFFFF;stroke-width:1.0379;stroke-linecap:round;stroke-miterlimit:10;" x1="342.653" y1="275.948" x2="349.463" y2="281.68"/>
				
					<line style="fill:none;stroke:#FFFFFF;stroke-width:1.0379;stroke-linecap:round;stroke-miterlimit:10;" x1="340.938" y1="287.834" x2="350.697" y2="296.049"/>
				
					<line style="fill:none;stroke:#FFFFFF;stroke-width:1.0379;stroke-linecap:round;stroke-miterlimit:10;" x1="351.753" y1="261.826" x2="348.478" y2="265.717"/>
				
					<line style="fill:none;stroke:#FFFFFF;stroke-width:1.0379;stroke-linecap:round;stroke-miterlimit:10;" x1="355.579" y1="274.837" x2="349.847" y2="281.647"/>
				
					<line style="fill:none;stroke:#FFFFFF;stroke-width:1.0379;stroke-linecap:round;stroke-miterlimit:10;" x1="359.296" y1="286.257" x2="351.081" y2="296.016"/>
			</g>
		</g>
		<g>
			<path style="fill:#0073AA;" d="M281.107,369.198h-40.171c-3.702,0-6.704-3.001-6.704-6.704v-8.893h53.579v8.893
				C287.811,366.197,284.81,369.198,281.107,369.198z"/>
			<polygon style="opacity:0.19;" points="287.811,363.425 287.811,353.602 234.232,353.602 234.232,356.574 			"/>
			
				<linearGradient id="SVGID_00000061443344954892774460000006132425215539269029_" gradientUnits="userSpaceOnUse" x1="115.798" y1="134.834" x2="90.2555" y2="202.4742" gradientTransform="matrix(0 -1 1 0 21.0846 432.9836)">
				<stop  offset="0.0653" style="stop-color:#FF337C"/>
				<stop  offset="0.3322" style="stop-color:#C2227D"/>
				<stop  offset="1" style="stop-color:#480080"/>
			</linearGradient>
			<path style="fill:url(#SVGID_00000061443344954892774460000006132425215539269029_);" d="M219.191,266.806l-23.208,19.365
				c-10.56,8.812-16.665,21.856-16.665,35.609v78.515l0,0c8.961,0,16.226-7.265,16.226-16.226v-9.159
				c0-20.194,8.946-39.35,24.43-52.314l21.42-17.933L219.191,266.806z"/>
			
				<linearGradient id="SVGID_00000093864880896673417840000011430292644035818424_" gradientUnits="userSpaceOnUse" x1="106.9066" y1="240.4418" x2="98.8655" y2="305.2441" gradientTransform="matrix(0 -1 1 0 21.0846 432.9836)">
				<stop  offset="0.0653" style="stop-color:#FF337C"/>
				<stop  offset="0.3322" style="stop-color:#C2227D"/>
				<stop  offset="1" style="stop-color:#480080"/>
			</linearGradient>
			<path style="fill:url(#SVGID_00000093864880896673417840000011430292644035818424_);" d="M302.324,266.806l23.208,19.365
				c10.56,8.812,16.665,21.856,16.665,35.609v78.515l0,0c-8.961,0-16.226-7.265-16.226-16.226v-9.159
				c0-20.194-8.946-39.35-24.43-52.314l-21.42-17.933L302.324,266.806z"/>
			<path style="fill:#0073AA;" d="M287.387,354.706h-52.696c-3.678,0-6.529-3.216-6.087-6.868l4.674-38.65H288.8l4.674,38.65
				C293.916,351.49,291.065,354.706,287.387,354.706z"/>
			<polygon style="opacity:0.19;" points="290.374,322.209 288.8,312.309 233.277,312.309 231.703,322.209 			"/>
			
				<radialGradient id="SVGID_00000011017471600284539750000010383772956377754250_" cx="285.1396" cy="167.1126" r="181.1767" fx="317.7532" fy="145.6414" gradientTransform="matrix(0 -1 1 0 21.0846 432.9836)" gradientUnits="userSpaceOnUse">
				<stop  offset="0.1503" style="stop-color:#AD33FF"/>
				<stop  offset="1" style="stop-color:#5C64ED"/>
			</radialGradient>
			<path style="fill:url(#SVGID_00000011017471600284539750000010383772956377754250_);" d="M230.76,97.709
				c-10.554,33.396-19.424,77.063-19.424,119.834c0,30.565,2.737,59.098,7.473,83.269c1.999,10.201,10.965,17.541,21.36,17.541
				h41.738c10.395,0,19.361-7.34,21.36-17.541c4.737-24.171,7.473-52.704,7.473-83.269c0-42.771-9.352-86.439-20.161-119.834H230.76
				z"/>
			<path style="opacity:0.3;fill:#450B82;" d="M266.373,97.709H230.76c-2.278,7.207-4.476,14.893-6.525,22.945
				C222.143,128.877,259.587,109.397,266.373,97.709z"/>
			<path style="opacity:0.19;" d="M294.109,109.167L294.109,109.167c-6.809,0-11.95,6.18-10.686,12.871
				c5.207,27.551,9.131,60.285,8.65,95.505c-0.417,30.562-2.737,59.098-7.473,83.269c-1.999,10.201-10.965,17.541-21.36,17.541
				h18.578c10.497,0,19.499-7.469,21.48-17.777c7.142-37.173,7.443-69.619,7.443-83.033
				C310.741,179.511,303.346,140.766,294.109,109.167z"/>
			<circle style="opacity:0.25;" cx="260.683" cy="203.045" r="35.468"/>
			
				<linearGradient id="SVGID_00000010296103921174040210000011039012240767734915_" gradientUnits="userSpaceOnUse" x1="225.2151" y1="199.3115" x2="296.1505" y2="199.3115">
				<stop  offset="0.0653" style="stop-color:#FF337C"/>
				<stop  offset="0.3322" style="stop-color:#C2227D"/>
				<stop  offset="1" style="stop-color:#480080"/>
			</linearGradient>
			<circle style="fill:url(#SVGID_00000010296103921174040210000011039012240767734915_);" cx="260.683" cy="199.311" r="35.468"/>
			<path style="opacity:0.21;" d="M260.683,163.844c-0.127,0-0.251,0.008-0.378,0.01v70.916c0.126,0.001,0.251,0.01,0.378,0.01
				c19.588,0,35.468-15.88,35.468-35.468C296.151,179.723,280.271,163.844,260.683,163.844z"/>
			
				<linearGradient id="SVGID_00000139976452563904859430000016295728779468980391_" gradientUnits="userSpaceOnUse" x1="244.882" y1="182.8612" x2="265.2834" y2="204.101">
				<stop  offset="0" style="stop-color:#AFE6FF"/>
				<stop  offset="1" style="stop-color:#41B4E6"/>
			</linearGradient>
			<circle style="fill:url(#SVGID_00000139976452563904859430000016295728779468980391_);" cx="260.683" cy="199.311" r="24.267"/>
			<path style="opacity:0.12;" d="M260.683,179.205c12.701,0,23.116,9.759,24.173,22.187c0.058-0.686,0.095-1.379,0.095-2.081
				c0-13.402-10.865-24.267-24.267-24.267c-13.402,0-24.267,10.865-24.267,24.267c0,0.701,0.036,1.394,0.095,2.081
				C237.566,188.964,247.982,179.205,260.683,179.205z"/>
			
				<linearGradient id="SVGID_00000160891755856799240550000007383097170518689203_" gradientUnits="userSpaceOnUse" x1="101.3001" y1="223.4007" x2="101.3001" y2="239.4832" gradientTransform="matrix(0 -1 1 0 21.0846 432.9836)">
				<stop  offset="0.0653" style="stop-color:#FF337C"/>
				<stop  offset="0.3322" style="stop-color:#C2227D"/>
				<stop  offset="1" style="stop-color:#480080"/>
			</linearGradient>
			<path style="fill:url(#SVGID_00000160891755856799240550000007383097170518689203_);" d="M261.409,399.85l-0.371,0.445l0,0
				c-3.7-4.119-5.826-9.413-6.001-14.947l-3.257-102.643c-0.243-7.642,3.193-14.937,9.239-19.618l0.02-0.015l0,0
				c6.057,4.689,9.493,12.002,9.238,19.657L266.84,385.6C266.666,390.822,264.755,395.837,261.409,399.85z"/>
			<path style="opacity:0.21;" d="M261.409,399.85l-0.371,0.445l0,0l-0.02-137.208l0.02-0.015l0,0
				c6.057,4.689,9.493,12.002,9.238,19.657L266.84,385.6C266.666,390.822,264.755,395.837,261.409,399.85z"/>
		</g>
		
			<linearGradient id="SVGID_00000150065531630010389720000015625001869959579272_" gradientUnits="userSpaceOnUse" x1="-94.3062" y1="325.9322" x2="-83.8828" y2="357.0393" gradientTransform="matrix(-0.4417 -0.8972 0.8972 -0.4417 -211.1425 395.6631)">
			<stop  offset="0" style="stop-color:#AFE6FF"/>
			<stop  offset="1" style="stop-color:#41B4E6"/>
		</linearGradient>
		<path style="fill:url(#SVGID_00000150065531630010389720000015625001869959579272_);" d="M121.281,320.072l1.448,1.071
			c0.479,0.354,0.213,1.115-0.382,1.093l0,0c-0.447-0.016-0.754,0.44-0.578,0.85c1.191,2.764,2.774,5.47,4.885,7.887
			c8.957,10.257,24.305,11.88,27.515,12.11c0.335,0.024,0.623-0.228,0.645-0.563c0.188-2.99,0.593-16.564-6.579-26.7
			c-0.235-0.332-0.73-0.333-0.975-0.008l-0.278,0.368c-0.361,0.478-1.123,0.199-1.089-0.4l0.071-1.258
			c0.053-0.925-0.293-1.833-0.956-2.48c-7.911-7.705-19.482-9.81-24.332-10.369c-1.255-0.145-2.357,0.821-2.382,2.084
			c-0.061,3.012,0.116,8.638,1.802,14.589C120.289,319.038,120.704,319.646,121.281,320.072z"/>
		<g>
			
				<line style="fill:none;stroke:#0F9AD6;stroke-width:0.8597;stroke-linecap:round;stroke-miterlimit:10;" x1="124.344" y1="308.282" x2="152.376" y2="340.382"/>
			
				<line style="fill:none;stroke:#0F9AD6;stroke-width:0.8597;stroke-linecap:round;stroke-miterlimit:10;" x1="126.066" y1="315.234" x2="130.269" y2="315.518"/>
			
				<line style="fill:none;stroke:#0F9AD6;stroke-width:0.8597;stroke-linecap:round;stroke-miterlimit:10;" x1="131.623" y1="324.996" x2="138.98" y2="325.494"/>
			
				<line style="fill:none;stroke:#0F9AD6;stroke-width:0.8597;stroke-linecap:round;stroke-miterlimit:10;" x1="136.295" y1="333.778" x2="146.838" y2="334.491"/>
			
				<line style="fill:none;stroke:#0F9AD6;stroke-width:0.8597;stroke-linecap:round;stroke-miterlimit:10;" x1="130.793" y1="311.105" x2="130.509" y2="315.308"/>
			
				<line style="fill:none;stroke:#0F9AD6;stroke-width:0.8597;stroke-linecap:round;stroke-miterlimit:10;" x1="139.718" y1="317.927" x2="139.22" y2="325.284"/>
			
				<line style="fill:none;stroke:#0F9AD6;stroke-width:0.8597;stroke-linecap:round;stroke-miterlimit:10;" x1="147.791" y1="323.739" x2="147.078" y2="334.282"/>
		</g>
		<g>
			
				<line style="fill:none;stroke:#0091C8;stroke-width:2.5248;stroke-linecap:round;stroke-miterlimit:10;" x1="222.998" y1="425.435" x2="191.718" y2="244.928"/>
			
				<line style="fill:none;stroke:#0091C8;stroke-width:2.5248;stroke-linecap:round;stroke-miterlimit:10;" x1="226.765" y1="244.928" x2="266.366" y2="425.435"/>
			
				<line style="fill:none;stroke:#0091C8;stroke-width:2.5248;stroke-miterlimit:10;" x1="194.311" y1="258.491" x2="229.852" y2="258.491"/>
			
				<line style="fill:none;stroke:#0091C8;stroke-width:2.5248;stroke-miterlimit:10;" x1="190.4" y1="277.262" x2="233.222" y2="277.262"/>
			
				<line style="fill:none;stroke:#0091C8;stroke-width:2.5248;stroke-miterlimit:10;" x1="194.613" y1="296.032" x2="237.435" y2="296.032"/>
			
				<line style="fill:none;stroke:#0091C8;stroke-width:2.5248;stroke-miterlimit:10;" x1="198.826" y1="314.803" x2="241.648" y2="314.803"/>
			
				<line style="fill:none;stroke:#0091C8;stroke-width:2.5248;stroke-miterlimit:10;" x1="203.039" y1="333.574" x2="245.861" y2="333.574"/>
			
				<line style="fill:none;stroke:#0091C8;stroke-width:2.5248;stroke-miterlimit:10;" x1="207.252" y1="352.344" x2="250.074" y2="352.344"/>
			
				<line style="fill:none;stroke:#0091C8;stroke-width:2.5248;stroke-miterlimit:10;" x1="213.545" y1="371.115" x2="254.287" y2="371.115"/>
			
				<line style="fill:none;stroke:#0091C8;stroke-width:2.5248;stroke-miterlimit:10;" x1="215.677" y1="389.886" x2="258.499" y2="389.886"/>
			
				<line style="fill:none;stroke:#0091C8;stroke-width:2.5248;stroke-miterlimit:10;" x1="219.89" y1="408.656" x2="262.712" y2="408.656"/>
			
				<line style="fill:none;stroke:#41B4E6;stroke-width:2.5248;stroke-linecap:round;stroke-miterlimit:10;" x1="195.485" y1="425.435" x2="226.765" y2="244.928"/>
			
				<line style="fill:none;stroke:#41B4E6;stroke-width:2.5248;stroke-linecap:round;stroke-miterlimit:10;" x1="191.718" y1="244.928" x2="152.117" y2="425.435"/>
			
				<line style="fill:none;stroke:#41B4E6;stroke-width:2.5248;stroke-miterlimit:10;" x1="224.172" y1="258.491" x2="189.672" y2="258.491"/>
			
				<line style="fill:none;stroke:#41B4E6;stroke-width:2.5248;stroke-miterlimit:10;" x1="220.801" y1="277.262" x2="185.261" y2="277.262"/>
			
				<line style="fill:none;stroke:#41B4E6;stroke-width:2.5248;stroke-miterlimit:10;" x1="217.629" y1="296.032" x2="181.048" y2="296.032"/>
			
				<line style="fill:none;stroke:#41B4E6;stroke-width:2.5248;stroke-miterlimit:10;" x1="214.456" y1="314.803" x2="176.835" y2="314.803"/>
			
				<line style="fill:none;stroke:#41B4E6;stroke-width:2.5248;stroke-miterlimit:10;" x1="211.284" y1="333.574" x2="172.622" y2="333.574"/>
			
				<line style="fill:none;stroke:#41B4E6;stroke-width:2.5248;stroke-miterlimit:10;" x1="208.111" y1="352.344" x2="168.41" y2="352.344"/>
			
				<line style="fill:none;stroke:#41B4E6;stroke-width:2.5248;stroke-miterlimit:10;" x1="204.938" y1="371.115" x2="164.197" y2="371.115"/>
			
				<line style="fill:none;stroke:#41B4E6;stroke-width:2.5248;stroke-miterlimit:10;" x1="202.806" y1="388.798" x2="159.984" y2="388.798"/>
			
				<line style="fill:none;stroke:#41B4E6;stroke-width:2.5248;stroke-miterlimit:10;" x1="198.593" y1="408.656" x2="155.771" y2="408.656"/>
		</g>
		<g>
			<path style="fill:#FAB9AF;" d="M216.365,276.002h2.882c-0.222-0.419-0.466-0.834-0.695-1.206
				c-0.542-0.876-1.39-0.983-2.523-1.426l-1.753-0.507c-0.5-0.145-1.016-0.223-1.536-0.235l-0.022-0.001
				c-0.736-0.018-1.471,0.063-2.186,0.236l-3.05,0.737l0.885,3.012l1.903-0.212C211.154,277.615,215.458,276.047,216.365,276.002z"
				/>
			<path style="fill:#F5415F;" d="M172.718,276.761c-0.051-4.92,1.59-11.05-8.709-21.077c-0.301-0.293-0.765-0.331-1.089-0.064
				c-0.851,0.702-3.572,1.032-4.943,2.25c-2.569,2.281-7.07,9.427-5.802,12.621c2.706,6.812,3.305,11.583,2.939,19.263
				c-0.294,7.888,7.894,15.839,14.117,13.651c2.227-0.783,3.492-2.369,4.153-4.312c0.504-1.482,0.352-3.129-0.383-4.511
				c-0.004-0.007-0.007-0.014-0.011-0.021C170.586,290.059,172.889,293.178,172.718,276.761z"/>
			<path style="fill:#FAB9AF;" d="M180.607,347.031c2.993-16.425,1.723-30.265,0.572-37.562c-0.515-3.264-3.16-5.77-6.445-6.125l0,0
				c-4.725-0.441-8.777,3.405-8.511,8.143c0.116,2.069,0.401,4.514,0.958,7.35c2.177,11.094,6.403,62.654,6.432,62.668
				c0.136,1.386-0.266,3.203-0.454,3.657c-0.613,1.477-1.104,2.862,0.974,2.862c1.635,0,1.837-0.362,4.046-0.114
				c1.364,0.153,2.574,0.142,3.424,0.095c0.481-0.026,0.568-0.701,0.109-0.85c-1.264-0.412-3.234-0.838-4.26-1.357
				c-1.248-0.632-1.719-0.687-1.731-2.19c-0.003-0.37,0.022-0.737,0.073-1.104L180.607,347.031z"/>
			<path style="fill:#C3417D;" d="M181.71,387.156c-1.23-0.401-3.121-0.816-4.167-1.316c-0.5,0.172-1.059,0.271-1.683,0.271
				c-1.119,0-2.035-0.312-2.757-0.817c-0.586,1.426-0.989,2.731,1.028,2.731c1.635,0,1.837-0.362,4.046-0.114
				c1.364,0.153,2.574,0.142,3.424,0.095C182.083,387.979,182.169,387.305,181.71,387.156z"/>
			<path style="fill:#FAB9AF;" d="M154.061,351.253c0,0,9.567-0.608,10.215-1.928c4.226-8.608,8.462-38.119,7.38-46.313
				l-7.342-0.613c-3.708-0.167-7.066,2.191-8.138,5.745c-1.6,5.304-3.132,14.239-1.698,27.258
				C154.479,335.401,156.847,344.684,154.061,351.253z"/>
			<path style="fill:#FAB9AF;" d="M162.089,340.283c-0.119,0.036-0.24,0.078-0.357,0.11c-4.107,1.107-29.432,8.41-34.055,9.743
				c-0.653,0.11-1.375,0.228-1.628,0.228c-0.941-0.002-1.301-0.206-1.759-0.385c-1.26-0.494-1.857,0.164-2.692,2.067
				c-0.7,1.595-2.708,1.378-2.574,2.781c0.186,1.943,0.655,3.175,1.15,3.216c0.711,0.058,0.632-0.488,1.021-2.275
				c0.153-0.7,1.623-1.452,3.042-2.024c1.554-0.627,3.208-0.967,4.882-1.037c4.69-0.197,15.759-0.604,24.942-1.454
				c2.858-0.264,5.883-0.836,8.028-1.119V340.283z"/>
			<path style="fill:#C3417D;" d="M125.383,350.319c-0.481-0.07-0.764-0.211-1.093-0.34c-1.26-0.494-1.857,0.164-2.692,2.067
				c-0.7,1.595-2.708,1.378-2.574,2.781c0.186,1.943,0.655,3.175,1.15,3.216c0.711,0.058,0.632-0.488,1.021-2.275
				c0.125-0.575,1.141-1.182,2.284-1.699C123.554,352.611,124.188,351.19,125.383,350.319z"/>
			<path style="fill:#502D6E;" d="M176.303,380.744l4.303-33.712c2.993-16.425,1.723-30.265,0.572-37.562
				c-0.515-3.264-3.16-5.77-6.445-6.125h0c-4.725-0.441-8.777,3.405-8.511,8.143c0.116,2.069,0.401,4.514,0.958,7.35
				c2.022,10.304,5.504,55.512,6.057,61.907H176.303z"/>
			<path style="fill:#482963;" d="M167.18,318.837c1.123,5.723,2.696,22.211,3.968,36.838c0.512-1.81,0.965-3.641,1.351-5.499
				c1.164-5.609,1.377-11.338,2.128-17.006c0.686-5.179,2.775-10.332,3.01-15.52c0.072-1.585,0.749-2.771,1.715-3.557
				c1.373-1.116,2.105-2.844,1.83-4.591c-0.002-0.011-0.003-0.021-0.005-0.032c-0.515-3.264-3.16-5.77-6.445-6.125h-0.193
				c-4.782,0-8.615,4.036-8.277,8.806C166.401,314.073,166.682,316.299,167.18,318.837z"/>
			<path style="fill:#6E289B;" d="M171.656,303.011l-7.342-0.613c-3.708-0.167-7.066,2.191-8.138,5.745
				c-1.6,5.304-3.132,14.239-1.698,27.258l0.529,6.896c-8.056,2.296-20.613,5.4-25.703,6.868l0.556,4.036
				c4.785-0.199,15.129-1.109,24.201-1.948c0,0,9.26-0.505,10.215-1.928C169.62,341.362,172.738,311.206,171.656,303.011z"/>
			<path style="fill:#FFE65A;" d="M207.481,273.602l-17.042,8.302c-7.037-1.592-18.917-8.131-22.626-8.754
				c-0.36,1.889-1.125,3.764-0.861,6.219c0.254,2.362,1.981,4.301,4.282,4.893c6.771,1.742,16.703,4.751,20.949,3.651
				c5.612-1.455,16.184-11.3,16.184-11.3C208.841,275.751,208.698,273.851,207.481,273.602z"/>
			<path style="fill:#FFE65A;" d="M207.284,273.602l-17.042,8.302c-7.037-1.592-18.917-8.131-22.626-8.754
				c-0.36,1.889-1.125,3.764-0.861,6.219c0.255,2.362,1.981,4.301,4.282,4.893c6.771,1.742,16.703,4.751,20.949,3.651
				c5.612-1.455,16.184-11.3,16.184-11.3C208.644,275.751,208.501,273.851,207.284,273.602z"/>
			<path style="fill:#FFD23C;" d="M175.812,292.866c-0.216-0.456-1.144-1.952-0.19-3.043c0.745-0.852,1.849-2.87,1.602-4.066
				c-0.273-1.318-0.148-3.062-1.699-5.29c-4.301-6.175-7.711-7.316-7.711-7.316c-2.477-0.094-7.004,0.436-10.898,0.612
				c-12.898,0.584-7.314,7.412-7.314,7.412c1.538,1.524,2.809,3.3,3.735,5.275c1.601,3.417,3.658,7.796,4.864,10.372
				c0.502,1.63-0.991,6.439-1.521,8.06l-1.111,3.397c-0.166,0.506,0.098,1.057,0.601,1.232c5.631,1.948,16.969,2.24,24.219-0.071
				c0.812-0.259,1.199-1.187,0.795-1.938L175.812,292.866z"/>
			<path style="fill:#FAB9AF;" d="M155.884,254.809c-3.741,1.039-4.397,4.09-3.1,9.036c0.486,1.852,1.823,3.45,2.816,4.431
				c0.737,0.729,1.159,1.718,1.142,2.755l-0.049,3.009c0.158,2.734,1.776,3.809,3.727,3.82c0.966,0.006,1.985-0.49,2.626-1.212
				c0.763-0.859,0.48-2.173,0.004-3.219l-0.432-0.734c-0.583-0.989-0.283-2.312,0.731-2.848c0.789-0.417,1.611-1.028,2.112-1.625
				c0.491-0.585,0.79-4.946-1.206-9.475C162.193,254.068,159.625,253.77,155.884,254.809z"/>
			<path style="fill:#FF6473;" d="M150.951,258.486c3.022-5.859,9.509-7.764,12.795-5.761c1.767,1.077,4.228,5.685,0.305,5.84
				c-0.983,0.039-1.883-0.296-2.685-0.81c-0.267-0.172-0.592-0.23-0.905-0.181l-2.555,0.879c-2.099,0.722-3.225,2.999-2.526,5.106
				l0.25,0.755c0.114,0.385-0.289,0.719-0.646,0.534l-0.151-0.283c-0.395-0.737-1.08-1.275-1.89-1.482
				C151.239,262.646,149.138,262,150.951,258.486z"/>
			<path style="fill:#5046AF;" d="M178.988,305.823l-11.147,3.047c-0.584,0.16-1.166-0.264-1.194-0.869l-0.896-19.606
				c-0.02-0.441,0.267-0.837,0.692-0.954l10.997-3.041c0.582-0.161,1.164,0.258,1.196,0.861l1.046,19.599
				C179.707,305.305,179.418,305.706,178.988,305.823z"/>
			<path style="fill:#FAB9AF;" d="M176.669,293.694c-0.942,0.561-1.947,1.021-2.297,1.282c-0.146,0.109-0.448,0.518-0.543,0.631
				c-0.281,0.331-0.664,0.887-1.078,1.019l-1.73,0.583c-0.841,0.268-1.349,0.877-1.081,1.717l0,0c0.29,0.91,1.198,1.077,2.069,0.683
				l1.217-0.388c0.697-0.315,1.468-0.285,2.233-0.293c1.556-0.016,3.115-0.911,4.299-1.746c0.743-0.524,0.564-1.376,0.378-2.998
				c-0.114-0.994-0.453-2.547-1.119-1.787c-0.312,0.356,0.061,3.142-2.382,3.223c-0.12,0.004-0.429-0.008-0.478-0.147
				c-0.146-0.415,0.759-0.787,1.148-1.132c0.546-0.484,0.662-1.012,0.508-1.263C177.651,292.813,177.342,293.293,176.669,293.694z"
				/>
			<path style="fill:#FFE65A;" d="M146.693,278.224c1.889-6.1,8.447-3.048,8.447,1.383c0,2.04,0.412,12.988-0.496,16.826
				c-0.355,1.499-0.409,2.59,1.364,2.356c0.01-0.001,0.021,0.004,0.031,0.006l16.912-2.642c0.894,1.168,0.56,2.348,0.175,3.528
				c0,0-12.594,5.7-19.219,7.427c-1.678,0.437-5.382,1.07-6.363-1.315C146.433,303.089,145.144,283.224,146.693,278.224z"/>
			<path style="fill:#FF6473;" d="M159.437,296.978c0.796-3.9,0.214-8.061-1.658-11.585c-1.338-2.518-2.288-5.726-3.089-8.496
				c-0.771-2.665-1.922-4.888-2.101-7.655c-0.266-4.105,0.816-8.213,4.464-10.972c1.62-1.225,1.76-2.768,3.814-2.995
				c-0.374-0.567-0.868-1.098-1.525-1.582c0,0-7.132-2.905-9.763,1.753c-2.631,4.658-2.577,10.869-8.222,18.687
				c-10.427,14.44-8.428,20.801-3.329,26.416C143.727,306.826,157.979,304.117,159.437,296.978z"/>
			<path style="fill:#FAB9AF;" d="M154.763,264.325c0.558,1.046,1.237,2.372,0.318,2.862c-0.918,0.49-2.857-0.922-3.415-1.968
				c-0.558-1.046-0.106-1.618,0.813-2.108C153.397,262.621,154.205,263.279,154.763,264.325z"/>
		</g>
		<g>
			<path style="fill:#FAB9AF;" d="M342.642,413.327l1.351,5.294c0.532,1.8,1.222,3.049,1.222,3.049
				c0.608,0.903,0.559,2.544-0.871,2.454c0,0-1.93-0.391-3.921,0.263c-2.037,0.669-4.599,0.11-4.599-0.428
				c0-1.194,1.114-0.246,2.979-1.494c0.625-0.418,1.27-0.855,1.845-1.307c1.605-1.26,0.204-4.451-0.779-6.248
				c-0.354-0.646,0.022-2.258,0.742-2.412l0.465-0.099C341.759,412.255,342.44,412.658,342.642,413.327z"/>
			<path style="fill:#FAB9AF;" d="M341.435,367.97c-0.388-0.979-0.67-2.002-0.864-2.374c-0.081-0.155-0.423-0.504-0.515-0.612
				c-0.271-0.317-0.74-0.765-0.801-1.177l-0.288-1.729c-0.125-0.838-0.625-1.413-1.463-1.287l0,0
				c-0.907,0.136-1.204,0.971-0.964,1.857l0.181,1.213c0.192,0.709,0.046,1.436-0.064,2.162c-0.222,1.477,0.388,3.093,0.998,4.343
				c0.383,0.785,1.507,1.132,3.028,1.511c0.747,0.186,1.962,0.252,1.383-0.526c-0.485-0.653-2.749-1.379-2.452-3.707
				c0.015-0.115,0.073-0.405,0.212-0.431c0.415-0.075,0.63,0.84,0.897,1.261c0.375,0.592,0.858,0.782,1.12,0.674
				C342.121,369.035,341.713,368.668,341.435,367.97z"/>
			<path style="fill:#FFE65A;" d="M330.134,329.513c1.612-4.621-3.021-6.243-6.283-2.824c-2.794,2.929-12.392,21.86-15.19,24.791
				c-1.726,1.808-10.194,6.229-16.433,9.354l0.648,4.182c5.389-1.782,12.99-4.455,17.126-6.619
				C320.035,353.148,327.257,337.762,330.134,329.513z"/>
			<path style="fill:#FAB9AF;" d="M371.793,412.326l1.582,5.254c0.765,2.172,1.432,3.546,1.432,3.546
				c0.712,1.058,0.325,2.919-1.02,2.875c0,0-2.262-0.431-4.594,0.335c-2.387,0.784-5.189,0.096-5.389-0.501
				c-0.379-1.135,1.305-0.289,3.49-1.75c0.732-0.49,1.488-1.002,2.162-1.531c1.881-1.477,0.238-5.214-0.913-7.32
				c-0.414-0.757,0.026-1.697,0.869-1.877l0.545-0.116C370.759,411.07,371.557,411.542,371.793,412.326z"/>
			<path style="fill:#502D6E;" d="M355.629,350.872l-17.335-1.455c0,0-6.135,22.014-7.764,31.787
				c-1.18,7.08,9.545,34.452,9.545,34.452c1.177,0.075,2.352-0.062,3.322-0.415c0,0-1.97-24.341-0.863-30.228
				c1.156-6.14,9.121-17.496,10.382-20.56C357.529,353.245,355.629,350.872,355.629,350.872z"/>
			<path style="fill:#6E289B;" d="M352.051,351.092c-1.79,9.606-5.788,23.969,1.914,37.463
				c7.702,13.494,15.645,27.573,15.645,27.573c1.042,0.043,2.289-0.441,3.168-1.108c0,0-1.506-6.063-3.458-13.206
				c-2.233-8.171-5.062-17.783-4.256-22.794c1.51-9.392,3.245-21.9,2.719-27.974C367.256,344.972,352.992,346.042,352.051,351.092z"
				/>
			<path style="fill:#FFC305;" d="M351.434,363.657c-5.668,3.858-13.446,1.706-16.389-4.487l-12.302-25.883
				c-1.497-3.15,0.025-6.905,3.292-8.125l9.275-3.461c3.088-1.152,6.566-0.316,8.793,2.113l22.652,24.713
				c0.637,0.617,0.653,1.633,0.029,2.264c-2.302,2.327-7.968,7.778-15.117,12.705C351.589,363.551,351.512,363.604,351.434,363.657z
				"/>
			<g>
				<path style="fill:#0091C8;" d="M332.044,315.306c-0.056-1.399,1.28-3.96-0.939-5.039c-1.342-0.653-2.153-1.821-2.589-2.646
					c-0.147-0.337-0.284-0.645-0.41-0.922c0-0.001-0.005-0.013-0.005-0.013c0,0-0.001,0-0.001,0
					c-0.042-0.092-0.088-0.196-0.127-0.28c-1.53-3.345-5.064-2.366-9.256-0.449c-3.301,1.509-5.254,5.497-5.42,8.539
					c-0.045,0.821,0.375,1.7,0.681,2.419c2.715,6.387,8.452,6.369,12.752,5.106c1.431,0.759,4.846-1.078,5.78-2.42
					C333.498,318.18,332.1,316.705,332.044,315.306z"/>
				<path style="fill:#FAB9AF;" d="M319.89,309.036c3.506-1.603,5.956,0.294,8.134,4.881c0.816,1.717,0.822,3.786,0.696,5.166
					c-0.093,1.025,0.219,2.046,0.895,2.823l1.962,2.254c1.629,2.178,1.087,4.029-0.388,5.285c-0.73,0.622-1.821,0.898-2.77,0.759
					c-1.129-0.165-1.755-1.343-2.062-2.442l-0.141-0.834c-0.19-1.124-1.263-1.937-2.377-1.695c-2.97,0.644-4.644-1.993-7.366-6.033
					C313.636,314.988,316.384,310.639,319.89,309.036z"/>
				<path style="fill:#0091C8;" d="M310.798,310.742l2.291-0.308c0.841-0.113,1.632-0.469,2.275-1.023l3.482-3.001
					c2.431-1.112,7.076-1.576,8.173,2.165l0.687,2.687c0.274,1.073-0.213,2.193-1.178,2.738c0,0,0,0,0,0
					c0.064,0.385-0.138,0.766-0.494,0.928c-0.435,0.199-0.948,0.008-1.147-0.427l0,0c-0.512-1.119-1.734-1.715-2.939-1.461
					c-1.477,0.312-2.94,0.895-4.253,1.981c-2.448,2.026-6.181,1.642-7.774-1.106c-0.101-0.174-0.194-0.355-0.28-0.542
					C309.111,312.215,309.678,310.922,310.798,310.742z"/>
				<path style="fill:#FAB9AF;" d="M326.13,314.885c0.49,1.07,1.285,1.756,2.316,1.285c1.031-0.471,1.019-2.246,0.529-3.317
					c-0.49-1.07-1.272-1.031-2.302-0.56C325.642,312.765,325.641,313.815,326.13,314.885z"/>
			</g>
			<g>
				
					<linearGradient id="SVGID_00000100376195711426810020000009342014703750954942_" gradientUnits="userSpaceOnUse" x1="284.429" y1="357.0047" x2="325.0453" y2="398.1663">
					<stop  offset="0.0653" style="stop-color:#FF337C"/>
					<stop  offset="0.3322" style="stop-color:#C2227D"/>
					<stop  offset="1" style="stop-color:#480080"/>
				</linearGradient>
				<path style="fill:url(#SVGID_00000100376195711426810020000009342014703750954942_);" d="M342.46,387.343v-6.633
					c0-1.537-1.246-2.783-2.783-2.783h-2.062c-1.312,0-2.485-0.827-2.913-2.067c-0.326-0.943-0.707-1.86-1.139-2.748
					c-0.575-1.182-0.333-2.598,0.596-3.527l1.459-1.459c1.087-1.087,1.087-2.849,0-3.935l-4.69-4.69
					c-1.087-1.087-2.849-1.087-3.935,0l-1.459,1.459c-0.929,0.929-2.345,1.171-3.527,0.596c-0.888-0.432-1.805-0.813-2.748-1.139
					c-1.24-0.429-2.066-1.602-2.066-2.913v-2.062c0-1.537-1.246-2.783-2.783-2.783h-6.633c-1.537,0-2.783,1.246-2.783,2.783v2.062
					c0,1.312-0.827,2.485-2.066,2.913c-0.943,0.326-1.86,0.707-2.748,1.139c-1.182,0.575-2.598,0.333-3.527-0.596l-1.459-1.459
					c-1.087-1.087-2.849-1.087-3.935,0l-4.69,4.69c-1.087,1.087-1.087,2.849,0,3.935l1.459,1.459
					c0.929,0.93,1.171,2.345,0.596,3.527c-0.432,0.888-0.813,1.805-1.139,2.748c-0.429,1.24-1.602,2.067-2.913,2.067h-2.062
					c-1.537,0-2.783,1.246-2.783,2.783v6.633c0,1.537,1.246,2.783,2.783,2.783h2.062c1.312,0,2.485,0.827,2.913,2.067
					c0.326,0.943,0.707,1.86,1.139,2.747c0.575,1.182,0.333,2.598-0.596,3.527l-1.459,1.459c-1.087,1.087-1.087,2.849,0,3.935
					l4.69,4.69c1.087,1.087,2.849,1.087,3.935,0l1.459-1.459c0.929-0.93,2.345-1.171,3.527-0.596
					c0.888,0.432,1.805,0.813,2.748,1.139c1.24,0.429,2.066,1.602,2.066,2.913v2.062c0,1.537,1.246,2.783,2.783,2.783h6.633
					c1.537,0,2.783-1.246,2.783-2.783v-2.062c0-1.312,0.827-2.485,2.066-2.913c0.943-0.326,1.86-0.707,2.748-1.139
					c1.182-0.575,2.598-0.333,3.527,0.596l1.459,1.459c1.087,1.087,2.849,1.087,3.935,0l4.69-4.69c1.087-1.087,1.087-2.849,0-3.935
					l-1.459-1.459c-0.929-0.929-1.171-2.345-0.596-3.527c0.432-0.888,0.813-1.805,1.139-2.747c0.429-1.24,1.602-2.067,2.913-2.067
					h2.062C341.214,390.125,342.46,388.879,342.46,387.343z M312.318,399.081c-9.306,0.734-17.014-6.974-16.28-16.28
					c0.577-7.321,6.508-13.251,13.829-13.829c9.306-0.734,17.013,6.974,16.28,16.28C325.57,392.572,319.639,398.503,312.318,399.081
					z"/>
				
					<linearGradient id="SVGID_00000006667668153591342230000015616273486553310637_" gradientUnits="userSpaceOnUse" x1="278.3201" y1="349.745" x2="384.9042" y2="461.2356">
					<stop  offset="0.0653" style="stop-color:#FF337C"/>
					<stop  offset="0.3322" style="stop-color:#C2227D"/>
					<stop  offset="1" style="stop-color:#480080"/>
				</linearGradient>
				<path style="fill:url(#SVGID_00000006667668153591342230000015616273486553310637_);" d="M351.745,388.324v-8.596
					c0-1.992-1.615-3.606-3.606-3.606h-2.673c-1.7,0-3.22-1.072-3.776-2.678c-0.423-1.222-0.916-2.41-1.476-3.561
					c-0.745-1.532-0.432-3.366,0.772-4.571l1.891-1.891c1.409-1.408,1.409-3.692,0-5.1l-6.078-6.078c-1.408-1.408-3.692-1.408-5.1,0
					l-1.891,1.891c-1.204,1.205-3.039,1.518-4.571,0.772c-1.151-0.56-2.339-1.053-3.561-1.476c-1.607-0.556-2.678-2.076-2.678-3.776
					v-2.672c0-1.992-1.615-3.607-3.607-3.607h-8.596c-1.992,0-3.607,1.615-3.607,3.607v2.672c0,1.7-1.072,3.22-2.678,3.776
					c-1.222,0.422-2.41,0.916-3.561,1.476c-1.532,0.745-3.366,0.432-4.571-0.772l-1.891-1.891c-1.408-1.408-3.692-1.408-5.1,0
					l-6.078,6.078c-1.408,1.408-1.408,3.692,0,5.1l1.891,1.891c1.205,1.205,1.518,3.039,0.772,4.571
					c-0.56,1.151-1.053,2.339-1.476,3.561c-0.556,1.607-2.076,2.678-3.776,2.678h-2.672c-1.992,0-3.607,1.615-3.607,3.606v8.596
					c0,1.992,1.615,3.607,3.607,3.607h2.672c1.7,0,3.22,1.071,3.776,2.678c0.423,1.222,0.916,2.41,1.476,3.561
					c0.745,1.532,0.432,3.367-0.772,4.571l-1.891,1.891c-1.408,1.409-1.408,3.692,0,5.1l6.078,6.078c1.408,1.409,3.692,1.409,5.1,0
					l1.891-1.891c1.204-1.204,3.039-1.518,4.571-0.772c1.151,0.56,2.339,1.053,3.561,1.476c1.607,0.556,2.678,2.076,2.678,3.776
					v2.672c0,1.992,1.615,3.606,3.607,3.606h8.596c1.992,0,3.607-1.615,3.607-3.606v-2.672c0-1.7,1.071-3.22,2.678-3.776
					c1.222-0.423,2.41-0.916,3.561-1.476c1.532-0.745,3.366-0.432,4.571,0.772l1.891,1.891c1.408,1.409,3.692,1.409,5.1,0
					l6.078-6.078c1.409-1.408,1.409-3.692,0-5.1l-1.891-1.891c-1.205-1.204-1.518-3.039-0.772-4.571
					c0.56-1.151,1.053-2.339,1.476-3.561c0.556-1.607,2.076-2.678,3.776-2.678h2.673
					C350.13,391.931,351.745,390.316,351.745,388.324z M312.681,403.537c-12.06,0.951-22.05-9.038-21.099-21.099
					c0.748-9.487,8.435-17.174,17.922-17.922c12.06-0.951,22.05,9.038,21.099,21.098
					C329.855,395.102,322.168,402.788,312.681,403.537z"/>
				<g>
					
						<linearGradient id="SVGID_00000178195269633644050560000010222214976367880616_" gradientUnits="userSpaceOnUse" x1="286.3533" y1="372.481" x2="271.5712" y2="365.5827">
						<stop  offset="0.0653" style="stop-color:#FF337C"/>
						<stop  offset="0.3322" style="stop-color:#C2227D"/>
						<stop  offset="1" style="stop-color:#FF00FF"/>
					</linearGradient>
					<path style="fill:url(#SVGID_00000178195269633644050560000010222214976367880616_);" d="M311.093,411.785
						c-15.307,0-27.759-12.452-27.759-27.759s12.453-27.759,27.759-27.759c15.306,0,27.758,12.452,27.758,27.759
						S326.399,411.785,311.093,411.785z M311.093,359.59c-13.474,0-24.437,10.961-24.437,24.436
						c0,13.474,10.962,24.436,24.437,24.436c13.474,0,24.436-10.962,24.436-24.436C335.529,370.552,324.567,359.59,311.093,359.59z"
						/>
				</g>
			</g>
			<path style="fill:#FAB9AF;" d="M313.67,350.978c0.217-0.804-0.228-1.638-1.018-1.903l-0.95-0.319
				c-1.102-0.37-2.136-0.961-2.771-1.934c-0.432-0.663-2.122-2.205-2.717-1.627c-0.515,0.5,1.66,2.331,1.033,2.681
				c-0.29,0.162-2.369-0.774-3.75-1.237c-0.75-0.252-1.661-0.004-1.467,0.551c0.122,0.347-0.138,0.602-0.328,1.114
				c-0.179,0.482,1.14,1.999,1.445,2.425c0.38,0.532,0.288,0.837,1.787,1.213c1.139,0.286,5.173,0.181,5.173,0.181l1.813,0
				C312.708,352.241,313.461,351.749,313.67,350.978L313.67,350.978z"/>
			<path style="fill:#FFE65A;" d="M311.504,348.681c0,0,19.083,3.112,22.413,2.174c3.33-0.937,0.024-22.22,0.269-24.819
				c0.405-4.304,7.277-4.891,9.909,0.75c3.319,7.115-3.422,29.873-5.169,31.336s-27.729-5.698-27.729-5.698
				C310.803,351.546,310.928,350.282,311.504,348.681z"/>
		</g>
		<g>
			<path style="fill:#DFABFF;" d="M402.378,136.007l0.391,0.983c0.367,0.921,1.096,1.65,2.017,2.017l0.983,0.391
				c0.477,0.19,0.477,0.865,0,1.055l-0.983,0.391c-0.921,0.367-1.65,1.096-2.017,2.017l-0.391,0.983
				c-0.19,0.477-0.865,0.477-1.055,0l-0.391-0.983c-0.366-0.921-1.096-1.65-2.017-2.017l-0.983-0.391
				c-0.477-0.19-0.477-0.865,0-1.055l0.983-0.391c0.921-0.367,1.65-1.096,2.017-2.017l0.391-0.983
				C401.513,135.529,402.188,135.529,402.378,136.007z"/>
			<path style="fill:#DFABFF;" d="M347.088,165.649l0.55,1.382c0.515,1.294,1.54,2.318,2.834,2.834l1.382,0.55
				c0.67,0.267,0.67,1.216,0,1.483l-1.382,0.55c-1.294,0.515-2.319,1.54-2.834,2.833l-0.55,1.382c-0.267,0.671-1.216,0.671-1.483,0
				l-0.55-1.382c-0.515-1.294-1.54-2.319-2.834-2.833l-1.382-0.55c-0.671-0.267-0.671-1.216,0-1.483l1.382-0.55
				c1.294-0.515,2.319-1.54,2.834-2.834l0.55-1.382C345.872,164.979,346.821,164.979,347.088,165.649z"/>
			<path style="fill:#DFABFF;" d="M109.639,269.824l0.55,1.382c0.515,1.294,1.54,2.319,2.834,2.833l1.382,0.55
				c0.67,0.267,0.67,1.216,0,1.483l-1.382,0.55c-1.294,0.515-2.319,1.54-2.834,2.834l-0.55,1.382c-0.267,0.671-1.216,0.671-1.483,0
				l-0.55-1.382c-0.515-1.294-1.54-2.319-2.834-2.834l-1.382-0.55c-0.67-0.267-0.67-1.216,0-1.483l1.382-0.55
				c1.294-0.515,2.319-1.54,2.834-2.833l0.55-1.382C108.423,269.154,109.372,269.154,109.639,269.824z"/>
			<path style="fill:#DFABFF;" d="M428.034,254.011l0.334,0.839c0.313,0.786,0.935,1.408,1.721,1.721l0.839,0.334
				c0.407,0.162,0.407,0.738,0,0.901l-0.839,0.334c-0.786,0.313-1.408,0.935-1.721,1.721l-0.334,0.839
				c-0.162,0.407-0.738,0.407-0.901,0l-0.334-0.839c-0.313-0.786-0.935-1.408-1.721-1.721l-0.839-0.334
				c-0.407-0.162-0.407-0.739,0-0.901l0.839-0.334c0.786-0.313,1.408-0.935,1.721-1.721l0.334-0.839
				C427.296,253.604,427.872,253.604,428.034,254.011z"/>
			<path style="fill:#DFABFF;" d="M442.57,187.407l0.55,1.382c0.515,1.294,1.54,2.319,2.834,2.834l1.382,0.55
				c0.671,0.267,0.671,1.216,0,1.483l-1.382,0.55c-1.294,0.515-2.319,1.54-2.834,2.833l-0.55,1.382
				c-0.267,0.671-1.216,0.671-1.483,0l-0.55-1.382c-0.515-1.294-1.54-2.319-2.834-2.833l-1.382-0.55
				c-0.671-0.267-0.671-1.216,0-1.483l1.382-0.55c1.294-0.515,2.319-1.54,2.834-2.834l0.55-1.382
				C441.354,186.736,442.303,186.736,442.57,187.407z"/>
			<path style="fill:#DFABFF;" d="M329.236,224.776l0.222,0.557c0.207,0.521,0.62,0.934,1.142,1.142l0.557,0.222
				c0.27,0.107,0.27,0.49,0,0.598l-0.557,0.222c-0.522,0.207-0.935,0.62-1.142,1.142l-0.222,0.557c-0.108,0.27-0.49,0.27-0.598,0
				l-0.221-0.557c-0.208-0.521-0.621-0.935-1.142-1.142l-0.557-0.222c-0.27-0.107-0.27-0.49,0-0.598l0.557-0.222
				c0.522-0.208,0.935-0.621,1.142-1.142l0.221-0.557C328.746,224.506,329.128,224.506,329.236,224.776z"/>
			<path style="fill:#DFABFF;" d="M126.077,98.716l0.222,0.557c0.208,0.521,0.621,0.935,1.142,1.142l0.557,0.222
				c0.27,0.108,0.27,0.49,0,0.598l-0.557,0.221c-0.521,0.208-0.934,0.621-1.142,1.142l-0.222,0.557c-0.108,0.27-0.49,0.27-0.598,0
				l-0.222-0.557c-0.207-0.522-0.62-0.935-1.142-1.142l-0.557-0.221c-0.27-0.108-0.27-0.49,0-0.598l0.557-0.222
				c0.522-0.207,0.935-0.62,1.142-1.142l0.222-0.557C125.587,98.446,125.969,98.446,126.077,98.716z"/>
			<path style="fill:#DFABFF;" d="M442.127,340.376l0.222,0.557c0.208,0.521,0.621,0.934,1.142,1.142l0.557,0.222
				c0.27,0.108,0.27,0.49,0,0.598l-0.557,0.222c-0.521,0.207-0.934,0.62-1.142,1.142l-0.222,0.557c-0.108,0.27-0.49,0.27-0.598,0
				l-0.222-0.557c-0.207-0.521-0.62-0.934-1.142-1.142l-0.557-0.222c-0.27-0.107-0.27-0.49,0-0.598l0.557-0.222
				c0.521-0.208,0.935-0.621,1.142-1.142l0.222-0.557C441.637,340.106,442.019,340.106,442.127,340.376z"/>
			<path style="opacity:0.5;fill:#DFABFF;" d="M427.883,398.076l0.222,0.557c0.208,0.522,0.621,0.935,1.142,1.142l0.557,0.221
				c0.27,0.108,0.27,0.49,0,0.598l-0.557,0.222c-0.521,0.208-0.934,0.621-1.142,1.142l-0.222,0.557c-0.108,0.27-0.49,0.27-0.598,0
				l-0.221-0.557c-0.208-0.521-0.621-0.934-1.142-1.142l-0.557-0.222c-0.27-0.108-0.27-0.49,0-0.598l0.557-0.221
				c0.521-0.208,0.935-0.621,1.142-1.142l0.221-0.557C427.393,397.806,427.775,397.806,427.883,398.076z"/>
			<path style="fill:#DFABFF;" d="M199.637,237.335l0.222,0.557c0.208,0.521,0.621,0.934,1.142,1.142l0.557,0.222
				c0.27,0.107,0.27,0.49,0,0.597l-0.557,0.222c-0.521,0.208-0.934,0.621-1.142,1.142l-0.222,0.557c-0.108,0.27-0.49,0.27-0.598,0
				l-0.222-0.557c-0.208-0.521-0.62-0.934-1.142-1.142l-0.557-0.222c-0.27-0.107-0.27-0.49,0-0.597l0.557-0.222
				c0.521-0.207,0.934-0.62,1.142-1.142l0.222-0.557C199.147,237.065,199.53,237.065,199.637,237.335z"/>
			<path style="fill:#DFABFF;" d="M379.069,251.486l0.222,0.557c0.208,0.521,0.621,0.934,1.142,1.142l0.557,0.222
				c0.27,0.108,0.27,0.49,0,0.598l-0.557,0.222c-0.521,0.207-0.934,0.621-1.142,1.142l-0.222,0.557c-0.108,0.27-0.49,0.27-0.598,0
				l-0.222-0.557c-0.207-0.521-0.62-0.935-1.142-1.142l-0.557-0.222c-0.27-0.108-0.27-0.49,0-0.598l0.557-0.222
				c0.522-0.208,0.934-0.621,1.142-1.142l0.222-0.557C378.579,251.216,378.961,251.216,379.069,251.486z"/>
			<path style="opacity:0.5;fill:#DFABFF;" d="M202.55,155.289l0.222,0.557c0.208,0.521,0.621,0.934,1.142,1.142l0.557,0.222
				c0.27,0.108,0.27,0.49,0,0.598l-0.557,0.222c-0.521,0.207-0.934,0.621-1.142,1.142l-0.222,0.557c-0.107,0.27-0.49,0.27-0.598,0
				l-0.222-0.557c-0.208-0.521-0.62-0.935-1.142-1.142l-0.557-0.222c-0.27-0.107-0.27-0.49,0-0.598l0.557-0.222
				c0.521-0.208,0.934-0.62,1.142-1.142l0.222-0.557C202.06,155.019,202.443,155.019,202.55,155.289z"/>
			<path style="fill:#DFABFF;" d="M86.834,131.01l0.222,0.557c0.207,0.521,0.621,0.934,1.142,1.142l0.557,0.222
				c0.27,0.107,0.27,0.49,0,0.598l-0.557,0.222c-0.521,0.207-0.935,0.62-1.142,1.142l-0.222,0.557c-0.107,0.27-0.49,0.27-0.597,0
				l-0.222-0.557c-0.208-0.521-0.62-0.935-1.142-1.142l-0.557-0.222c-0.27-0.107-0.27-0.49,0-0.598l0.557-0.222
				c0.521-0.208,0.934-0.621,1.142-1.142l0.222-0.557C86.344,130.74,86.727,130.74,86.834,131.01z"/>
			<path style="fill:#DFABFF;" d="M79.274,315.037l0.222,0.557c0.208,0.521,0.621,0.934,1.142,1.142l0.557,0.222
				c0.27,0.108,0.27,0.49,0,0.598l-0.557,0.222c-0.521,0.207-0.935,0.621-1.142,1.142l-0.222,0.557c-0.108,0.27-0.49,0.27-0.598,0
				l-0.222-0.557c-0.207-0.521-0.62-0.935-1.142-1.142l-0.557-0.222c-0.27-0.107-0.27-0.49,0-0.598l0.557-0.222
				c0.522-0.208,0.935-0.621,1.142-1.142l0.222-0.557C78.784,314.767,79.166,314.767,79.274,315.037z"/>
			<path style="fill:#DFABFF;" d="M61.883,265.866l0.222,0.557c0.208,0.521,0.621,0.935,1.142,1.142l0.557,0.222
				c0.27,0.107,0.27,0.49,0,0.597l-0.557,0.222c-0.521,0.208-0.934,0.621-1.142,1.142l-0.222,0.557c-0.108,0.27-0.49,0.27-0.598,0
				l-0.221-0.557c-0.208-0.521-0.621-0.934-1.142-1.142l-0.557-0.222c-0.27-0.107-0.27-0.49,0-0.597l0.557-0.222
				c0.521-0.207,0.935-0.621,1.142-1.142l0.221-0.557C61.393,265.596,61.775,265.596,61.883,265.866z"/>
			<path style="fill:#DFABFF;" d="M86.137,231.103l0.222,0.557c0.207,0.521,0.62,0.934,1.142,1.142l0.557,0.222
				c0.27,0.107,0.27,0.49,0,0.598l-0.557,0.222c-0.521,0.208-0.935,0.621-1.142,1.142l-0.222,0.557c-0.107,0.27-0.49,0.27-0.598,0
				l-0.222-0.557c-0.208-0.521-0.621-0.934-1.142-1.142l-0.557-0.222c-0.27-0.107-0.27-0.49,0-0.598l0.557-0.222
				c0.521-0.208,0.934-0.621,1.142-1.142l0.222-0.557C85.647,230.833,86.03,230.833,86.137,231.103z"/>
			<path style="fill:#DFABFF;" d="M393.122,203.456l0.176,0.442c0.165,0.414,0.492,0.741,0.906,0.906l0.442,0.176
				c0.214,0.085,0.214,0.389,0,0.474l-0.442,0.176c-0.414,0.165-0.741,0.492-0.906,0.906l-0.176,0.442
				c-0.085,0.214-0.389,0.214-0.474,0l-0.176-0.442c-0.165-0.414-0.492-0.741-0.906-0.906l-0.442-0.176
				c-0.214-0.085-0.214-0.389,0-0.474l0.442-0.176c0.414-0.165,0.741-0.492,0.906-0.906l0.176-0.442
				C392.733,203.241,393.036,203.241,393.122,203.456z"/>
		</g>
		<g>
			<g>
				<path style="fill:#FAB9AF;" d="M166.326,160.712c0,0-1.428,2.825-3.71,5.051l-1.475,1.355c-0.936,0.86-0.775,2.381,0.321,3.025
					c0,0,1.579,0.361,4.944,4.489c1.583,1.942,3.896,3.618,4.042,3.007c0.325-1.357-0.306-2.36-2.04-4.327
					c-3.956-4.485-0.811-9.248,0.795-11.022c0.577-0.638-0.07-1.833-0.846-2.203l0,0
					C167.621,159.734,166.738,160.006,166.326,160.712z"/>
				<path style="fill:#502D6E;" d="M171.796,104.295c-6.655-8.747-17.637,0.81-13.018,7.917c3.314,5.099,10.336,15.431,16.337,22.78
					c0.052,0.064,0.104,0.13,0.156,0.197c1.344,1.743,1.552,4.126,0.556,6.089c-1.611,3.174-3.461,6.483-5.159,9.576
					c-3.553,6.474-6.285,12.094-6.285,12.094c0.697,0.851,2.303,1.937,3.324,2.138c0,0,15.417-14.682,20.069-24.958
					c0.475-1.049,0.699-2.195,0.696-3.347c0-0.083-0.002-0.134-0.005-0.136C186.429,128.216,177.347,111.591,171.796,104.295z"/>
			</g>
			<g>
				
					<radialGradient id="SVGID_00000100355583518646236500000015680005461443816850_" cx="165.4094" cy="155.9848" r="44.0559" gradientTransform="matrix(1 0.0035 -0.0031 0.8935 0.4854 16.0349)" gradientUnits="userSpaceOnUse">
					<stop  offset="0" style="stop-color:#FFFFFF"/>
					<stop  offset="1" style="stop-color:#BA9BC9"/>
				</radialGradient>
				<circle style="fill:url(#SVGID_00000100355583518646236500000015680005461443816850_);" cx="154.481" cy="170.556" r="48.71"/>
				<g>
					
						<radialGradient id="SVGID_00000055671713370870748710000007676302618908203400_" cx="118.8086" cy="134.825" r="40.2198" gradientTransform="matrix(0.6105 0.792 -1.1328 0.8732 199.0076 -77.0038)" gradientUnits="userSpaceOnUse">
						<stop  offset="0" style="stop-color:#FFFFFF"/>
						<stop  offset="1" style="stop-color:#BA9BC9"/>
					</radialGradient>
					
						<circle style="opacity:0.49;fill:url(#SVGID_00000055671713370870748710000007676302618908203400_);" cx="137.519" cy="151.216" r="16.411"/>
					
						<radialGradient id="SVGID_00000037660936940427382410000000046950675420732077_" cx="122.1635" cy="129.8667" r="24.5309" gradientUnits="userSpaceOnUse">
						<stop  offset="0" style="stop-color:#FFFFFF"/>
						<stop  offset="1" style="stop-color:#BA9BC9"/>
					</radialGradient>
					
						<circle style="fill:url(#SVGID_00000037660936940427382410000000046950675420732077_);" cx="137.519" cy="151.216" r="13.836"/>
					<path style="opacity:0.15;" d="M147.862,142.031c0.869,1.81,1.357,3.839,1.357,5.981c0,7.641-6.194,13.836-13.836,13.836
						c-4.115,0-7.808-1.798-10.342-4.65c2.231,4.646,6.98,7.854,12.479,7.854c7.641,0,13.836-6.194,13.836-13.836
						C151.355,147.69,150.034,144.474,147.862,142.031z"/>
				</g>
				<g>
					
						<radialGradient id="SVGID_00000018199980667797491370000002505995927168192915_" cx="165.1409" cy="180.7162" r="32.8268" gradientTransform="matrix(0.6105 0.792 -1.1328 0.8732 269.0403 -107.8812)" gradientUnits="userSpaceOnUse">
						<stop  offset="0" style="stop-color:#FFFFFF"/>
						<stop  offset="1" style="stop-color:#BA9BC9"/>
					</radialGradient>
					
						<circle style="opacity:0.49;fill:url(#SVGID_00000018199980667797491370000002505995927168192915_);" cx="180.412" cy="194.095" r="13.395"/>
					
						<radialGradient id="SVGID_00000082351639307147018820000011821786461029921436_" cx="168.5802" cy="177.6439" r="18.902" gradientUnits="userSpaceOnUse">
						<stop  offset="0" style="stop-color:#FFFFFF"/>
						<stop  offset="1" style="stop-color:#BA9BC9"/>
					</radialGradient>
					
						<circle style="fill:url(#SVGID_00000082351639307147018820000011821786461029921436_);" cx="180.412" cy="194.095" r="10.661"/>
					<path style="opacity:0.15;" d="M188.382,187.017c0.67,1.395,1.045,2.958,1.045,4.609c0,5.888-4.773,10.661-10.661,10.661
						c-3.171,0-6.017-1.386-7.969-3.583c1.719,3.58,5.378,6.052,9.615,6.052c5.888,0,10.661-4.773,10.661-10.661
						C191.073,191.378,190.055,188.899,188.382,187.017z"/>
				</g>
				<g>
					
						<radialGradient id="SVGID_00000017487680307869832700000000447283789033546120_" cx="132.7743" cy="190.935" r="24.2269" gradientTransform="matrix(0.6105 0.792 -1.1328 0.8732 268.0097 -80.9509)" gradientUnits="userSpaceOnUse">
						<stop  offset="0" style="stop-color:#FFFFFF"/>
						<stop  offset="1" style="stop-color:#BA9BC9"/>
					</radialGradient>
					
						<circle style="opacity:0.49;fill:url(#SVGID_00000017487680307869832700000000447283789033546120_);" cx="144.045" cy="200.809" r="9.885"/>
					
						<radialGradient id="SVGID_00000042015796634594285750000014181198102836504247_" cx="135.3654" cy="188.7411" r="13.8656" gradientUnits="userSpaceOnUse">
						<stop  offset="0" style="stop-color:#FFFFFF"/>
						<stop  offset="1" style="stop-color:#BA9BC9"/>
					</radialGradient>
					<circle style="fill:url(#SVGID_00000042015796634594285750000014181198102836504247_);" cx="144.045" cy="200.809" r="7.82"/>
					<path style="opacity:0.15;" d="M149.891,195.617c0.491,1.023,0.767,2.17,0.767,3.381c0,4.319-3.501,7.82-7.82,7.82
						c-2.326,0-4.413-1.016-5.846-2.628c1.261,2.626,3.945,4.439,7.053,4.439c4.319,0,7.82-3.501,7.82-7.82
						C151.865,198.816,151.118,196.997,149.891,195.617z"/>
				</g>
				<g>
					
						<radialGradient id="SVGID_00000109003040585492727880000016831232187243809424_" cx="152.2023" cy="167.5811" r="18.3047" gradientTransform="matrix(0.6105 0.792 -1.1328 0.8732 249.121 -99.299)" gradientUnits="userSpaceOnUse">
						<stop  offset="0" style="stop-color:#FFFFFF"/>
						<stop  offset="1" style="stop-color:#BA9BC9"/>
					</radialGradient>
					<circle style="fill:url(#SVGID_00000109003040585492727880000016831232187243809424_);" cx="160.718" cy="175.041" r="7.469"/>
					
						<radialGradient id="SVGID_00000026855021384765316430000012848372559021265079_" cx="154.367" cy="166.2111" r="15.4226" gradientTransform="matrix(0.6105 0.792 -0.794 0.612 192.0882 -57.7709)" gradientUnits="userSpaceOnUse">
						<stop  offset="0" style="stop-color:#FFFFFF"/>
						<stop  offset="1" style="stop-color:#BA9BC9"/>
					</radialGradient>
					<path style="fill:url(#SVGID_00000026855021384765316430000012848372559021265079_);" d="M166.44,175.041
						c0,3.16-2.562,5.722-5.722,5.722c-3.16,0-5.722-2.562-5.722-5.722c0-3.16,2.562-5.722,5.722-5.722
						C163.878,169.319,166.44,171.881,166.44,175.041z"/>
					<path style="opacity:0.15;" d="M164.995,171.242c0.359,0.749,0.561,1.588,0.561,2.474c0,3.16-2.562,5.722-5.722,5.722
						c-1.702,0-3.229-0.744-4.277-1.923c0.923,1.922,2.887,3.248,5.161,3.248c3.16,0,5.722-2.562,5.722-5.722
						C166.44,173.583,165.894,172.252,164.995,171.242z"/>
				</g>
				<g>
					
						<radialGradient id="SVGID_00000018952143213036588580000003619809413273604772_" cx="107.8805" cy="166.6642" r="26.1682" gradientTransform="matrix(0.6105 0.792 -1.1328 0.8732 230.8192 -64.3119)" gradientUnits="userSpaceOnUse">
						<stop  offset="0" style="stop-color:#FFFFFF"/>
						<stop  offset="1" style="stop-color:#BA9BC9"/>
					</radialGradient>
					
						<circle style="opacity:0.49;fill:url(#SVGID_00000018952143213036588580000003619809413273604772_);" cx="120.054" cy="177.329" r="10.678"/>
					
						<radialGradient id="SVGID_00000063616373675049438820000014480309193417256080_" cx="110.9248" cy="164.636" r="14.5842" gradientUnits="userSpaceOnUse">
						<stop  offset="0" style="stop-color:#FFFFFF"/>
						<stop  offset="1" style="stop-color:#BA9BC9"/>
					</radialGradient>
					<circle style="fill:url(#SVGID_00000063616373675049438820000014480309193417256080_);" cx="120.054" cy="177.329" r="8.226"/>
					<path style="opacity:0.15;" d="M126.203,171.868c0.517,1.076,0.807,2.282,0.807,3.556c0,4.543-3.683,8.226-8.226,8.226
						c-2.446,0-4.642-1.069-6.149-2.764c1.326,2.762,4.15,4.669,7.419,4.669c4.543,0,8.226-3.683,8.226-8.226
						C128.28,175.232,127.494,173.32,126.203,171.868z"/>
				</g>
				<g>
					
						<radialGradient id="SVGID_00000011726242786932108050000002993543633949078664_" cx="163.0329" cy="134.498" r="25.8871" gradientTransform="matrix(0.6105 0.792 -1.1328 0.8732 215.8622 -112.0715)" gradientUnits="userSpaceOnUse">
						<stop  offset="0" style="stop-color:#FFFFFF"/>
						<stop  offset="1" style="stop-color:#BA9BC9"/>
					</radialGradient>
					
						<circle style="fill:url(#SVGID_00000011726242786932108050000002993543633949078664_);" cx="175.076" cy="145.048" r="10.563"/>
					
						<radialGradient id="SVGID_00000060711637189072736950000005987580571168518544_" cx="165.9465" cy="132.3554" r="25.1824" gradientUnits="userSpaceOnUse">
						<stop  offset="0" style="stop-color:#FFFFFF"/>
						<stop  offset="1" style="stop-color:#BA9BC9"/>
					</radialGradient>
					<circle style="fill:url(#SVGID_00000060711637189072736950000005987580571168518544_);" cx="175.076" cy="145.048" r="8.226"/>
					<path style="opacity:0.1;" d="M181.225,139.587c0.517,1.076,0.807,2.282,0.807,3.556c0,4.543-3.683,8.226-8.226,8.226
						c-2.446,0-4.642-1.069-6.149-2.764c1.326,2.762,4.15,4.67,7.419,4.67c4.543,0,8.226-3.683,8.226-8.226
						C183.302,142.952,182.516,141.04,181.225,139.587z"/>
				</g>
				<g>
					
						<radialGradient id="SVGID_00000152251666742108241230000004447885586538047907_" cx="178.4458" cy="157.3018" r="25.2002" gradientTransform="matrix(0.6105 0.792 -1.1328 0.8732 247.698 -121.3874)" gradientUnits="userSpaceOnUse">
						<stop  offset="0" style="stop-color:#FFFFFF"/>
						<stop  offset="1" style="stop-color:#BA9BC9"/>
					</radialGradient>
					<path style="fill:url(#SVGID_00000152251666742108241230000004447885586538047907_);" d="M200.452,167.572
						c0,5.679-4.604,10.283-10.283,10.283c-5.679,0-10.283-4.604-10.283-10.283c0-5.679,4.604-10.283,10.283-10.283
						C195.848,157.289,200.452,161.893,200.452,167.572z"/>
					
						<radialGradient id="SVGID_00000169554672544984547000000015042277426095280310_" cx="183.1987" cy="159.3316" r="17.456" gradientUnits="userSpaceOnUse">
						<stop  offset="0" style="stop-color:#FFFFFF"/>
						<stop  offset="1" style="stop-color:#BA9BC9"/>
					</radialGradient>
					<circle style="fill:url(#SVGID_00000169554672544984547000000015042277426095280310_);" cx="190.169" cy="167.572" r="8.226"/>
					<path style="opacity:0.15;" d="M196.318,162.111c0.517,1.076,0.807,2.282,0.807,3.556c0,4.543-3.683,8.226-8.226,8.226
						c-2.446,0-4.642-1.069-6.149-2.764c1.327,2.762,4.15,4.67,7.419,4.67c4.543,0,8.226-3.683,8.226-8.226
						C198.395,165.476,197.609,163.564,196.318,162.111z"/>
				</g>
			</g>
			<g>
				<path style="fill:#FFA50A;" d="M207.94,95.13c-0.121-2.867,0.059-4.491-1.071-7.795c-5.879-0.197-12.556-0.751-15.249-0.282
					c-4.442,0.773-5.547,5.55-5.547,5.55c-0.156,1.266,0.486,2.877,4.514,2.957C192.784,95.603,200.812,94.547,207.94,95.13z"/>
				<g>
					
						<linearGradient id="SVGID_00000088131818818784588000000010799000889917418155_" gradientUnits="userSpaceOnUse" x1="195.5233" y1="97.3281" x2="333.0125" y2="6.1668">
						<stop  offset="0.0653" style="stop-color:#FF337C"/>
						<stop  offset="0.3322" style="stop-color:#C2227D"/>
						<stop  offset="1" style="stop-color:#480080"/>
					</linearGradient>
					<path style="fill:url(#SVGID_00000088131818818784588000000010799000889917418155_);" d="M260.803,68.875
						c-36.645-11.923-65.115-15.586-68.452-10.902c-3.953,5.548,8.837,31.217,32.241,61.724L260.803,68.875z"/>
					<path style="opacity:0.41;fill:#FFFFFF;" d="M228.231,114.59l3.882-5.448c-12.952-16.883-23.01-27.514-30.988-39.549
						c-0.659-0.995-2.188-0.162-1.7,0.927C203.616,79.864,212.33,93.864,228.231,114.59z"/>
					<path style="opacity:0.19;" d="M260.844,68.889c-36.665-11.934-65.155-15.601-68.493-10.915
						c-0.299,0.419,24.978,6.327,61.108,21.28L260.844,68.889z"/>
				</g>
				<path style="fill:#FAB9AF;" d="M169.76,120.043l30.059-23.61c1.18-1.113,1.479-2.873,0.733-4.312l-1.615-3.116
					c-2.451-4.728-8.174-6.71-13.024-4.51l-30.739,13.944L169.76,120.043z"/>
				<path style="fill:#FAB9AF;" d="M131.38,153.783c0,0-2.679,1.685-5.782,2.416l-1.962,0.401c-1.246,0.255-1.891,1.641-1.284,2.758
					c0,0,1.167,1.124,1.923,6.395c0.356,2.48,1.474,5.108,1.914,4.66c0.978-0.995,0.954-2.18,0.482-4.76
					c-1.078-5.882,4.072-8.343,6.363-9.036c0.824-0.249,0.885-1.606,0.41-2.324l0,0C132.993,153.613,132.096,153.391,131.38,153.783
					z"/>
				<path style="opacity:0.1;fill:#450B82;" d="M164.527,114.085c-2.488-10.705-15-7.189-13.697,1.186
					c0.935,6.009,1.688,19.015,4.152,28.178c0.021,0.08,0.042,0.161,0.062,0.243c0.512,2.141-0.274,4.4-1.987,5.782
					c-2.77,2.236-5.813,4.496-8.628,6.623c-5.893,4.451-10.686,8.459-10.686,8.459c0.038,0.142,0.092,0.296,0.155,0.456
					c-0.847,0.49-1.848,0.997-2.92,1.389l-1.901,0.632c-1.207,0.401-1.682,1.855-0.946,2.891c0,0,1.292,0.976,2.672,6.12
					c0.649,2.42,2.072,4.896,2.456,4.399c0.852-1.105,0.688-2.279-0.089-4.783c-1.172-3.78,0.543-6.391,2.472-8.008
					c0.086,0.078,0.173,0.155,0.257,0.215c0,0,20.078-7.079,28.531-14.549c0.863-0.762,1.537-1.716,2.006-2.768
					c0.034-0.076,0.053-0.123,0.051-0.127C168.079,141.901,166.603,123.015,164.527,114.085z"/>
				<path style="fill:#6E289B;" d="M165.145,108.257c-1.194-10.926-15.531-8.396-15.236,0.074
					c0.212,6.077,0.905,18.551,2.258,27.941c0.012,0.082,0.023,0.165,0.032,0.249c0.253,2.187-0.797,4.335-2.662,5.504
					c-3.017,1.89-6.307,3.771-9.356,5.547c-6.382,3.717-11.619,7.124-11.619,7.124c0.159,1.088,0.976,2.847,1.747,3.546
					c0,0,20.779-4.635,30.062-11.044c0.948-0.654,1.73-1.521,2.322-2.509c0.043-0.072,0.068-0.116,0.066-0.12
					C165.355,136.298,166.141,117.371,165.145,108.257z"/>
				<path style="fill:#FFC305;" d="M158.975,116.849c2.512,3.559,4.554,5.41,5.954,6.37c1.089,0.746,2.546,0.649,3.552-0.205
					l32.45-27.081c0.66-0.646,0.592-1.94,0.167-2.76l-2.241-4.462c-2.298-4.575-7.787-6.537-12.464-4.454l-30.413,13.544
					c-1.563,0.698-2.514,2.307-2.36,4.012C153.932,105.281,155.06,111.304,158.975,116.849z"/>
				<path style="fill:#FFA50A;" d="M198.856,88.71c-1.041-2.073-2.739-3.602-4.718-4.468c-1.582,1.13-2.185,3.26-1.331,5.084
					c0.963,2.056,3.411,2.941,5.466,1.978c0.541-0.254,0.998-0.611,1.365-1.036L198.856,88.71z"/>
				<path style="fill:#FAB9AF;" d="M241.337,93.336c-0.723,0.761-1.531,1.445-1.786,1.777c-0.106,0.138-0.279,0.594-0.338,0.722
					c-0.174,0.378-0.383,0.99-0.73,1.218l-1.444,0.985c-0.706,0.464-1.017,1.158-0.552,1.864l0,0
					c0.503,0.764,1.384,0.682,2.085,0.095l1.022-0.673c0.561-0.47,1.28-0.643,1.983-0.848c1.43-0.418,2.637-1.646,3.513-2.723
					c0.549-0.675,0.393-1.838,0.099-3.374c-0.144-0.754-0.593-1.881-1.056-1.031c-0.388,0.712-0.096,3.065-2.328,3.772
					c-0.11,0.035-0.397,0.104-0.479-0.012c-0.242-0.345,0.496-0.922,0.766-1.341c0.378-0.588,0.348-1.104,0.141-1.296
					C242.014,92.269,241.853,92.792,241.337,93.336z"/>
				<g>
					<path style="fill:#6E289B;" d="M209.193,73.003c-0.14-0.692-0.277-1.561-0.73-2.149c-1.679-2.18-5.172-4.15-8.402-3.586
						c-4.101,0.716-7.233,1.795-6.661,5.068c0.014,0.082,0.033,0.184,0.049,0.273c0,0-0.001,0-0.001,0c0,0,0.003,0.011,0.003,0.012
						c0.048,0.271,0.104,0.57,0.166,0.897c0.097,0.838,0.091,2.122-0.574,3.294c-1.1,1.938,1.204,3.162,1.878,4.232
						c0.674,1.07,0.388,2.883,1.849,3.435c1.382,0.522,4.863,0.143,5.54-1.154C206.156,82.067,210.438,79.147,209.193,73.003z"/>
					<path style="fill:#FAB9AF;" d="M203.344,70.663c-3.324-1.037-5.081,1.061-6.51,5.419c-0.464,1.414-0.471,2.542-0.289,3.614
						c0.213,1.253-0.128,3.13-0.835,4.186l-1.114,1.664c-0.357,0.63-0.322,0.52-0.527,0.872c-0.235,0.404-0.438,1.121-0.386,1.585
						c0.247,2.251,3.25,3.395,4.865,1.614c0.431-0.476,0.736-1.081,0.844-1.778l0.417-2.703c4.129,1.695,5.381-1.039,7.756-5.755
						C209.625,75.284,206.668,71.701,203.344,70.663z"/>
					<path style="fill:#6E289B;" d="M211.095,72.783c0.078-0.745-0.519-1.346-1.268-1.377c-1.057-0.045-1.929-0.619-2.386-0.921
						l-3.462-2.292c-2.305-0.719-6.519-0.606-7.076,2.871l-0.308,2.471c-0.124,0.997,0.435,1.953,1.365,2.333l0,0
						c-0.013,0.353,0.211,0.671,0.548,0.776c0.412,0.129,0.85-0.101,0.979-0.513l0,0c0.331-1.061,1.359-1.734,2.467-1.644
						c1.359,0.111,2.506,1.435,3.853,2.181C209.845,78.902,210.85,75.118,211.095,72.783z"/>
					<path style="fill:#FAB9AF;" d="M198.419,76.616c-0.317,1.015-0.951,1.72-1.928,1.415c-0.977-0.305-1.169-1.896-0.852-2.911
						c0.317-1.015,1.022-1.069,1.999-0.764C198.615,74.66,198.736,75.601,198.419,76.616z"/>
				</g>
				<path style="fill:#FAB9AF;" d="M187.132,94.143c0,0,19.432,11.871,29.615,10.914c6.965-0.654,21.117-4.664,21.117-4.664
					s1.079-1.091,1.021-1.722c-0.06-0.652-0.298-1.702-0.298-1.702s-1.067,0.903-2.674,1.071c-5.472,0.571-17.78,0.966-20.533,0.314
					c-3.561-0.844-21.064-10.62-24.718-10.509C187.007,87.954,183.96,91.063,187.132,94.143z"/>
				<path style="fill:#FFD23C;" d="M206.127,93.889c-6.261-3.03-13.783-6.581-15.969-6.515c-3.947,0.12-6.197,4.964-3.058,7.147
					c0,0,7.693,4.697,16.204,8.176C205.059,100.039,205.964,97.231,206.127,93.889z"/>
			</g>
		</g>
		<path style="fill:#502D6E;" d="M345.579,422.905c0.003-0.427-0.13-0.885-0.365-1.234c0,0-0.171-0.31-0.408-0.842
			c-0.749,0.592-1.731,0.962-2.951,0.962c-0.627,0-1.19-0.1-1.692-0.274c-0.444,0.324-0.903,0.644-1.361,0.95
			c-1.865,1.247-3.922,0.295-3.922,1.49c0,0.538,3.505,1.101,5.543,0.432c0.487-0.16,0.969-0.256,1.421-0.312v0.244
			c0,0.198,0.16,0.358,0.358,0.358h3.023c0.198,0,0.358-0.16,0.358-0.358v-1.415H345.579z"/>
		<path style="fill:#502D6E;" d="M374.807,421.126c0,0-0.2-0.415-0.501-1.131c-0.778,0.741-1.861,1.217-3.249,1.217
			c-0.747,0-1.403-0.141-1.974-0.383c-0.576,0.431-1.185,0.852-1.788,1.256c-2.185,1.461-3.869,0.615-3.49,1.75
			c0.199,0.597,3.002,1.285,5.389,0.501c0.943-0.31,1.867-0.42,2.642-0.446v0.113c0,0.228,0.185,0.412,0.413,0.412h2.497
			c0.228,0,0.412-0.185,0.412-0.412v-2.083C375.158,421.919,374.965,421.36,374.807,421.126z"/>
	</g>
</g>
<g id="DESIGNED_BY_FREEPIK">
	<g>
		<g id="XMLID_29_">
			<g id="XMLID_48_">
				<path id="XMLID_56_" style="fill:#A5B7C6;" d="M260.104,465.465c-0.432,0.443-0.803,0.931-1.108,1.453l-0.465-0.241
					c-0.067-0.298-0.349-0.503-0.659-0.466c-0.331,0.039-0.568,0.339-0.529,0.67c0.039,0.331,0.339,0.568,0.67,0.529
					c0.066-0.008,0.127-0.026,0.184-0.052l0.452,0.234c-0.251,0.554-0.433,1.139-0.539,1.744l0.746,0.132
					c0.23-1.306,0.85-2.507,1.792-3.473L260.104,465.465z"/>
				<path id="XMLID_55_" style="fill:#A5B7C6;" d="M265.592,463.163c-0.171,0-0.341,0.006-0.51,0.017l-0.074-0.626
					c0.188-0.149,0.296-0.389,0.266-0.645c-0.046-0.393-0.402-0.674-0.795-0.628c-0.393,0.046-0.674,0.402-0.628,0.795
					c0.03,0.254,0.189,0.461,0.405,0.564l0.073,0.624c-0.714,0.116-1.403,0.332-2.06,0.646l0.327,0.684
					c0.934-0.447,1.942-0.673,2.995-0.673c0.496,0,0.993,0.053,1.475,0.158l0.161-0.741
					C266.692,463.222,266.142,463.163,265.592,463.163z"/>
				<path id="XMLID_54_" style="fill:#A5B7C6;" d="M272.194,465.711c0.331-0.04,0.566-0.341,0.525-0.672
					c-0.04-0.331-0.341-0.566-0.672-0.526c-0.309,0.038-0.535,0.304-0.53,0.609l-0.416,0.363c-0.418-0.43-0.889-0.813-1.408-1.139
					l-0.404,0.641c1.134,0.715,2.021,1.726,2.563,2.925l0.69-0.313c-0.251-0.554-0.567-1.072-0.942-1.545l0.402-0.351
					C272.065,465.716,272.129,465.719,272.194,465.711z"/>
				<path id="XMLID_53_" style="fill:#A5B7C6;" d="M265.044,473.372c-0.386,0.023-0.775,0.035-1.157,0.035
					c-0.88,0-1.733-0.061-2.478-0.179c-0.39-0.062-0.846-0.155-1.27-0.292c1.046,1.861,3.069,3.125,5.388,3.125
					c2.855,0,5.262-1.916,5.95-4.504c-0.682,0.449-1.505,0.825-2.459,1.123C267.839,473.047,266.463,473.286,265.044,473.372z"/>
				<path id="XMLID_49_" style="fill:#A5B7C6;" d="M265.592,464.68c-3.352,0-6.08,2.666-6.08,5.943c0,0.426,0.046,0.849,0.137,1.261
					c0.673,0.483,2.706,0.89,5.348,0.731c2.879-0.173,5.297-0.957,6.672-2.159c-0.006-0.195-0.021-0.39-0.045-0.582
					C271.244,466.913,268.65,464.68,265.592,464.68z M263.432,471.194c-1.02,0-1.85-0.83-1.85-1.85c0-1.02,0.83-1.85,1.85-1.85
					c1.02,0,1.85,0.83,1.85,1.85C265.282,470.365,264.452,471.194,263.432,471.194z M268.17,470.286c-0.75,0-1.36-0.61-1.36-1.36
					s0.61-1.361,1.36-1.361c0.75,0,1.361,0.61,1.361,1.361S268.92,470.286,268.17,470.286z"/>
			</g>
			<path id="XMLID_46_" style="fill:#A5B7C6;" d="M281.595,466.547c-0.295-0.116-0.806-0.309-1.382-0.237
				c-0.551,0.069-0.844,0.341-0.844,1.007v0.866h2.228v1.717h-2.228v5.455h-1.932v-5.455h-1.34v-1.717h1.34v-0.888
				c0-1.68,0.896-2.783,2.568-2.783c0.643,0,1.157,0.122,1.59,0.308L281.595,466.547z"/>
			<path id="XMLID_44_" style="fill:#A5B7C6;" d="M286.298,469.879c-0.177-0.03-0.358-0.046-0.526-0.046
				c-0.896,0-1.51,0.548-1.51,1.614v3.908h-1.932v-7.172h1.873v0.785c0.451-0.673,1.14-0.977,2.021-0.977
				c0.414,0,0.848,0.128,1.094,0.337L286.298,469.879z"/>
			<path id="XMLID_41_" style="fill:#A5B7C6;" d="M293.965,471.757c0,0.222-0.015,0.489-0.037,0.651h-5.085
				c0.207,1.036,0.933,1.488,1.843,1.488c0.622,0,1.295-0.252,1.813-0.688l1.133,1.243c-0.814,0.748-1.85,1.088-3.057,1.088
				c-2.198,0-3.723-1.495-3.723-3.753c0-2.258,1.48-3.797,3.627-3.797C292.544,467.99,293.958,469.522,293.965,471.757z
				 M288.851,471.091h3.175c-0.177-0.918-0.733-1.436-1.562-1.436C289.554,469.655,289.021,470.203,288.851,471.091z"/>
			<path id="XMLID_38_" style="fill:#A5B7C6;" d="M301.618,471.757c0,0.222-0.015,0.489-0.037,0.651h-5.085
				c0.207,1.036,0.933,1.488,1.843,1.488c0.622,0,1.295-0.252,1.814-0.688l1.132,1.243c-0.814,0.748-1.85,1.088-3.057,1.088
				c-2.198,0-3.723-1.495-3.723-3.753c0-2.258,1.48-3.797,3.627-3.797C300.197,467.99,301.611,469.522,301.618,471.757z
				 M296.504,471.091h3.175c-0.178-0.918-0.733-1.436-1.562-1.436C297.207,469.655,296.674,470.203,296.504,471.091z"/>
			<path id="XMLID_35_" style="fill:#A5B7C6;" d="M309.964,471.764c0,2.154-1.495,3.775-3.471,3.775
				c-0.962,0-1.643-0.378-2.109-0.933v3.708h-1.924v-10.133h1.887v0.792c0.466-0.585,1.155-0.984,2.139-0.984
				C308.469,467.99,309.964,469.61,309.964,471.764z M304.287,471.764c0,1.132,0.748,1.976,1.843,1.976
				c1.14,0,1.85-0.881,1.85-1.976c0-1.095-0.71-1.976-1.85-1.976C305.035,469.788,304.287,470.632,304.287,471.764z"/>
			<path id="XMLID_32_" style="fill:#A5B7C6;" d="M313.068,465.836c0,0.696-0.54,1.229-1.236,1.229
				c-0.696,0-1.229-0.533-1.229-1.229c0-0.696,0.533-1.243,1.229-1.243C312.527,464.592,313.068,465.14,313.068,465.836z
				 M312.809,475.354h-1.932v-7.172h1.932V475.354z"/>
			<path id="XMLID_30_" style="fill:#A5B7C6;" d="M316.032,470.736l2.701-2.554h2.368l-3.479,3.375l3.501,3.797h-2.376l-2.716-2.901
				v2.901H314.1v-10.658h1.932V470.736z"/>
		</g>
		<g>
			<path style="fill:#A5B7C6;" d="M184.412,475.289v-1.055c-0.527,0.718-1.391,1.23-2.387,1.23c-1.846,0-3.149-1.406-3.149-3.706
				c0-2.256,1.289-3.721,3.149-3.721c0.952,0,1.816,0.469,2.387,1.245v-3.765h1.099v9.77H184.412z M184.412,473.37v-3.208
				c-0.395-0.615-1.245-1.143-2.124-1.143c-1.421,0-2.27,1.172-2.27,2.739c0,1.567,0.85,2.724,2.27,2.724
				C183.168,474.483,184.017,473.986,184.412,473.37z"/>
			<path style="fill:#A5B7C6;" d="M186.932,471.744c0-2.051,1.465-3.706,3.486-3.706c2.139,0,3.398,1.67,3.398,3.794v0.279h-5.727
				c0.088,1.333,1.026,2.446,2.549,2.446c0.805,0,1.626-0.322,2.182-0.894l0.527,0.718c-0.703,0.703-1.655,1.084-2.812,1.084
				C188.44,475.465,186.932,473.956,186.932,471.744z M190.403,468.947c-1.509,0-2.256,1.274-2.314,2.358h4.644
				C192.718,470.25,192.015,468.947,190.403,468.947z"/>
			<path style="fill:#A5B7C6;" d="M194.607,474.351l0.571-0.791c0.469,0.542,1.362,1.011,2.329,1.011c1.084,0,1.67-0.513,1.67-1.216
				c0-1.714-4.38-0.659-4.38-3.281c0-1.098,0.952-2.036,2.636-2.036c1.201,0,2.051,0.454,2.622,1.026l-0.513,0.762
				c-0.425-0.513-1.201-0.894-2.109-0.894c-0.967,0-1.567,0.483-1.567,1.113c0,1.552,4.38,0.527,4.38,3.281
				c0,1.187-0.952,2.138-2.783,2.138C196.306,475.465,195.325,475.113,194.607,474.351z"/>
			<path style="fill:#A5B7C6;" d="M201.477,466.471c0-0.41,0.337-0.747,0.732-0.747c0.41,0,0.747,0.337,0.747,0.747
				c0,0.41-0.337,0.732-0.747,0.732C201.814,467.203,201.477,466.881,201.477,466.471z M201.667,475.289v-7.075h1.099v7.075H201.667
				z"/>
			<path style="fill:#A5B7C6;" d="M204.582,477.105l0.556-0.82c0.586,0.703,1.289,0.967,2.3,0.967c1.172,0,2.27-0.571,2.27-2.124
				v-1.011c-0.513,0.718-1.377,1.26-2.373,1.26c-1.845,0-3.149-1.377-3.149-3.662c0-2.27,1.289-3.677,3.149-3.677
				c0.952,0,1.802,0.469,2.373,1.245v-1.069h1.099v6.87c0,2.344-1.641,3.076-3.369,3.076
				C206.237,478.16,205.417,477.926,204.582,477.105z M209.709,473.253v-3.091c-0.381-0.615-1.23-1.143-2.109-1.143
				c-1.421,0-2.27,1.128-2.27,2.695c0,1.553,0.849,2.695,2.27,2.695C208.478,474.41,209.328,473.868,209.709,473.253z"/>
			<path style="fill:#A5B7C6;" d="M217.413,475.289v-4.629c0-1.245-0.63-1.641-1.582-1.641c-0.865,0-1.685,0.527-2.095,1.099v5.17
				h-1.099v-7.075h1.099v1.025c0.498-0.586,1.464-1.201,2.519-1.201c1.48,0,2.256,0.747,2.256,2.285v4.966H217.413z"/>
			<path style="fill:#A5B7C6;" d="M219.932,471.744c0-2.051,1.465-3.706,3.486-3.706c2.139,0,3.398,1.67,3.398,3.794v0.279h-5.727
				c0.088,1.333,1.025,2.446,2.549,2.446c0.806,0,1.626-0.322,2.183-0.894l0.527,0.718c-0.703,0.703-1.655,1.084-2.812,1.084
				C221.441,475.465,219.932,473.956,219.932,471.744z M223.404,468.947c-1.509,0-2.256,1.274-2.314,2.358h4.643
				C225.718,470.25,225.015,468.947,223.404,468.947z"/>
			<path style="fill:#A5B7C6;" d="M233.35,475.289v-1.055c-0.527,0.718-1.391,1.23-2.388,1.23c-1.846,0-3.149-1.406-3.149-3.706
				c0-2.256,1.289-3.721,3.149-3.721c0.952,0,1.817,0.469,2.388,1.245v-3.765h1.099v9.77H233.35z M233.35,473.37v-3.208
				c-0.396-0.615-1.245-1.143-2.124-1.143c-1.421,0-2.27,1.172-2.27,2.739c0,1.567,0.849,2.724,2.27,2.724
				C232.105,474.483,232.954,473.986,233.35,473.37z"/>
			<path style="fill:#A5B7C6;" d="M239.692,475.289v-9.77h1.098v3.765c0.572-0.776,1.421-1.245,2.388-1.245
				c1.845,0,3.149,1.465,3.149,3.721c0,2.299-1.304,3.706-3.149,3.706c-0.996,0-1.86-0.513-2.388-1.23v1.055H239.692z
				 M242.9,474.483c1.436,0,2.285-1.157,2.285-2.724c0-1.568-0.85-2.739-2.285-2.739c-0.864,0-1.728,0.527-2.109,1.143v3.208
				C241.171,473.986,242.036,474.483,242.9,474.483z"/>
			<path style="fill:#A5B7C6;" d="M247.528,477.061c0.161,0.073,0.425,0.117,0.601,0.117c0.483,0,0.805-0.161,1.055-0.747
				l0.469-1.069l-2.959-7.148h1.187l2.358,5.8l2.344-5.8h1.201l-3.545,8.51c-0.425,1.025-1.143,1.421-2.08,1.435
				c-0.234,0-0.601-0.044-0.805-0.103L247.528,477.061z"/>
		</g>
	</g>
</g>
</svg>
